<svg id="visual" viewBox="0 0 600 900" width="600" height="900" xmlns="http://www.w3.org/2000/svg" xmlns:xlink="http://www.w3.org/1999/xlink" version="1.1"><rect x="0" y="0" width="600" height="900" fill="#f4f4f4"></rect><path d="M0 478L33 478L33 484L67 484L67 444L100 444L100 469L133 469L133 451L167 451L167 481L200 481L200 485L233 485L233 521L267 521L267 523L300 523L300 459L333 459L333 465L367 465L367 506L400 506L400 480L433 480L433 471L467 471L467 469L500 469L500 505L533 505L533 468L567 468L567 439L600 439L600 444L600 0L600 0L567 0L567 0L533 0L533 0L500 0L500 0L467 0L467 0L433 0L433 0L400 0L400 0L367 0L367 0L333 0L333 0L300 0L300 0L267 0L267 0L233 0L233 0L200 0L200 0L167 0L167 0L133 0L133 0L100 0L100 0L67 0L67 0L33 0L33 0L0 0Z" fill="#40e94f"></path><path d="M0 419L33 419L33 421L67 421L67 385L100 385L100 417L133 417L133 372L167 372L167 393L200 393L200 433L233 433L233 410L267 410L267 373L300 373L300 419L333 419L333 409L367 409L367 377L400 377L400 408L433 408L433 410L467 410L467 441L500 441L500 445L533 445L533 413L567 413L567 451L600 451L600 403L600 0L600 0L567 0L567 0L533 0L533 0L500 0L500 0L467 0L467 0L433 0L433 0L400 0L400 0L367 0L367 0L333 0L333 0L300 0L300 0L267 0L267 0L233 0L233 0L200 0L200 0L167 0L167 0L133 0L133 0L100 0L100 0L67 0L67 0L33 0L33 0L0 0Z" fill="#33d048"></path><path d="M0 366L33 366L33 336L67 336L67 313L100 313L100 350L133 350L133 383L167 383L167 374L200 374L200 361L233 361L233 312L267 312L267 358L300 358L300 362L333 362L333 323L367 323L367 358L400 358L400 312L433 312L433 346L467 346L467 356L500 356L500 336L533 336L533 356L567 356L567 336L600 336L600 348L600 0L600 0L567 0L567 0L533 0L533 0L500 0L500 0L467 0L467 0L433 0L433 0L400 0L400 0L367 0L367 0L333 0L333 0L300 0L300 0L267 0L267 0L233 0L233 0L200 0L200 0L167 0L167 0L133 0L133 0L100 0L100 0L67 0L67 0L33 0L33 0L0 0Z" fill="#26b740"></path><path d="M0 268L33 268L33 278L67 278L67 307L100 307L100 288L133 288L133 295L167 295L167 259L200 259L200 250L233 250L233 260L267 260L267 299L300 299L300 251L333 251L333 270L367 270L367 244L400 244L400 256L433 256L433 287L467 287L467 282L500 282L500 313L533 313L533 259L567 259L567 270L600 270L600 258L600 0L600 0L567 0L567 0L533 0L533 0L500 0L500 0L467 0L467 0L433 0L433 0L400 0L400 0L367 0L367 0L333 0L333 0L300 0L300 0L267 0L267 0L233 0L233 0L200 0L200 0L167 0L167 0L133 0L133 0L100 0L100 0L67 0L67 0L33 0L33 0L0 0Z" fill="#1b9f38"></path><path d="M0 185L33 185L33 236L67 236L67 184L100 184L100 240L133 240L133 198L167 198L167 193L200 193L200 225L233 225L233 206L267 206L267 189L300 189L300 185L333 185L333 242L367 242L367 182L400 182L400 214L433 214L433 186L467 186L467 226L500 226L500 209L533 209L533 216L567 216L567 229L600 229L600 219L600 0L600 0L567 0L567 0L533 0L533 0L500 0L500 0L467 0L467 0L433 0L433 0L400 0L400 0L367 0L367 0L333 0L333 0L300 0L300 0L267 0L267 0L233 0L233 0L200 0L200 0L167 0L167 0L133 0L133 0L100 0L100 0L67 0L67 0L33 0L33 0L0 0Z" fill="#108730"></path><path d="M0 130L33 130L33 171L67 171L67 171L100 171L100 169L133 169L133 163L167 163L167 143L200 143L200 147L233 147L233 157L267 157L267 142L300 142L300 171L333 171L333 166L367 166L367 136L400 136L400 151L433 151L433 156L467 156L467 153L500 153L500 126L533 126L533 132L567 132L567 134L600 134L600 139L600 0L600 0L567 0L567 0L533 0L533 0L500 0L500 0L467 0L467 0L433 0L433 0L400 0L400 0L367 0L367 0L333 0L333 0L300 0L300 0L267 0L267 0L233 0L233 0L200 0L200 0L167 0L167 0L133 0L133 0L100 0L100 0L67 0L67 0L33 0L33 0L0 0Z" fill="#067027"></path><path d="M0 73L33 73L33 56L67 56L67 66L100 66L100 81L133 81L133 94L167 94L167 84L200 84L200 80L233 80L233 95L267 95L267 65L300 65L300 94L333 94L333 67L367 67L367 83L400 83L400 63L433 63L433 88L467 88L467 86L500 86L500 67L533 67L533 81L567 81L567 81L600 81L600 66L600 0L600 0L567 0L567 0L533 0L533 0L500 0L500 0L467 0L467 0L433 0L433 0L400 0L400 0L367 0L367 0L333 0L333 0L300 0L300 0L267 0L267 0L233 0L233 0L200 0L200 0L167 0L167 0L133 0L133 0L100 0L100 0L67 0L67 0L33 0L33 0L0 0Z" fill="#015a1f"></path></svg>