<svg width="217" height="165" viewBox="0 0 217 165" fill="none" xmlns="http://www.w3.org/2000/svg">
<path d="M38.1225 27C34.9225 29.2667 34.1225 35.2667 36.7892 37.9333C37.9892 39.1333 37.7225 39.5333 35.4559 39.5333C33.0559 39.5333 32.1225 41.1333 29.3225 49.9333C20.3892 78.4667 20.9225 106.067 30.9225 127.267C32.6559 131.133 34.3892 134.067 34.5225 133.933C34.7892 133.667 33.5892 129.267 31.7225 124.2C29.1892 116.733 28.5225 112.067 28.5225 100.867C28.5225 93.1334 29.0559 86.2 29.5892 85.2667C30.1225 84.3334 36.7892 83.4 46.2559 82.8667L61.8559 81.8V86.7334C61.8559 90.0667 61.3225 91.5334 59.8559 91.5334C58.7892 91.5334 57.8559 92.0667 57.8559 92.7334C57.8559 93.4 57.4559 94.8667 57.0559 96.0667C56.5225 97.5334 56.9225 98.2 58.3892 98.2C60.9225 98.2 60.9225 97.1334 59.0559 117C57.7225 131.133 57.7225 133.133 59.7225 136.2C62.6559 140.6 67.1892 140.733 67.1892 136.333C67.1892 134.6 66.2559 132.867 65.1892 132.333C62.9225 131.533 62.6559 125.133 63.9892 108.467C64.7892 99 65.1892 98.2 67.8559 98.2C70.9225 98.2 73.1892 95 71.7225 92.7334C71.3225 92.0667 69.8559 91.5334 68.3892 91.5334C66.1225 91.5334 65.7225 90.7334 66.1225 87.1334L66.5225 82.8667L82.5225 82.2C100.789 81.2667 101.056 81.2667 65.9892 79.5334C31.8559 77.6667 30.7892 77.5334 31.9892 73.8C33.5892 68.4667 37.8559 57.5333 38.9225 55.8C39.7225 54.7333 48.6559 53 63.3225 51.1333L86.5225 48.2L64.7892 47.8C51.0559 47.6667 43.3225 47 43.8559 46.2C44.2559 45.4 49.0559 44.8667 54.2559 44.7333C59.5892 44.6 67.4559 44.2 71.8559 43.6667C79.4559 42.8667 78.9225 42.7333 63.7225 41.6667L47.5892 40.6L48.1225 35C48.7892 30.0667 48.3892 28.8667 45.7225 27C41.8559 24.3333 41.8559 24.3333 38.1225 27Z" fill="black"/>
<path d="M46.5225 91.5334C45.4559 95 46.9225 99.8 48.9225 99.1334C49.8559 98.8667 50.6559 96.4667 50.9225 93.8C51.1892 90.0667 50.7892 88.8667 49.3225 88.8667C48.2559 88.8667 46.9225 90.0667 46.5225 91.5334Z" fill="black"/>
<path d="M77.3225 95.8C76.5225 101 73.8559 132.467 73.8559 135.8C73.8559 137.133 74.7892 138.2 75.8559 138.2C76.9225 138.2 77.8559 137.933 77.8559 137.667C77.8559 137.4 78.5225 131 79.3225 123.4C80.9225 107.4 84.2559 98.2 88.5225 98.2C93.0559 98.2 93.7225 103 91.9892 121.267C90.5225 136.867 90.5225 138.2 92.6559 138.2C94.5225 138.2 95.0559 135.4 96.5225 119.133C98.1225 101.933 97.9892 99.6667 95.9892 95.8C93.0559 90.0667 88.5225 90.0667 83.8559 95.8L80.3892 100.2L80.7892 96.3334C81.3225 90.8667 78.1225 90.3334 77.3225 95.8Z" fill="black"/>
<path d="M111.589 93.5334C103.856 98.8667 100.123 125.933 105.856 135.267C107.856 138.6 109.323 139.533 112.656 139.533C118.523 139.533 121.723 137.4 120.923 134.2C120.389 132.2 119.456 131.667 117.989 132.2C116.789 132.733 115.189 133.4 114.523 133.667C111.589 134.867 108.256 130.6 107.589 124.6L106.923 118.6L112.523 117.8C119.456 116.867 123.056 113.667 124.123 107.133C125.989 95.4 119.323 88.0667 111.589 93.5334ZM119.723 100.333C121.189 103.933 120.656 107 118.256 109.133C115.456 111.533 108.923 113.267 108.123 111.933C107.056 110.333 110.789 100.6 112.789 99.4C115.589 97.5334 118.789 98.0667 119.723 100.333Z" fill="black"/>
<path d="M133.856 93.9334C131.456 95.8 130.656 98.2 130.256 103.667C129.723 110.067 130.123 111.533 133.723 116.867C138.123 123.4 138.923 128.333 135.989 132.2C134.389 134.333 133.589 134.467 130.789 133.267C127.989 131.933 127.323 132.067 126.656 133.8C125.456 136.867 128.256 139.533 132.523 139.533C142.123 139.533 145.189 123.933 137.856 113C135.589 109.8 133.856 105.8 133.856 104.2C133.856 100.467 137.056 97.6667 140.389 98.6C143.323 99.2667 145.056 95.2667 142.789 93C140.656 90.8667 137.189 91.2667 133.856 93.9334Z" fill="black"/>
<path d="M155.456 92.4667C152.656 93.5334 149.856 100.333 149.856 105.933C149.856 109.533 151.056 113 153.856 117C158.123 123.4 158.923 128.333 155.989 132.2C154.389 134.333 153.589 134.467 150.789 133.267C147.989 131.933 147.323 132.067 146.789 134.2C145.189 140.2 154.656 141.667 159.056 136.067C163.456 130.467 162.923 120.733 157.589 112.467C154.123 107.133 153.589 105.4 154.656 102.467C155.589 99.8 156.789 98.8667 159.189 98.8667C163.056 98.8667 165.723 94.4667 162.923 92.6C161.056 91.4 158.123 91.4 155.456 92.4667Z" fill="black"/>
<path d="M45.3225 116.467C44.7892 123.667 44.1225 131.533 43.5892 133.933C43.0559 137.533 43.3225 138.2 45.5892 138.2C47.8559 138.2 48.2559 137 49.0559 125.133C49.5892 118.067 50.2559 110.2 50.7892 107.8C51.3225 104.2 51.0559 103.533 48.7892 103.533C46.5225 103.533 46.1225 104.733 45.3225 116.467Z" fill="black"/>
<path d="M81.44 79.72L81.056 79.576C80.64 79.512 80.256 79.464 79.904 79.432C79.584 79.432 79.296 79.416 79.04 79.384L78.656 79.48L77.504 79.192L77.072 79.336L75.728 79.144L75.008 79.192C74.944 79.192 74.88 79.208 74.816 79.24L74.624 79.288L72.608 79L72.272 79.096C72.208 79.064 72.112 79.032 71.984 79C71.888 78.968 71.776 78.936 71.648 78.904L71.504 79C71.44 78.968 71.28 78.952 71.024 78.952L70.928 79H70.064C69.584 79 69.392 78.728 69.488 78.184L69.584 77.56C69.616 77.336 69.632 77.16 69.632 77.032C69.632 76.872 69.632 76.744 69.632 76.648C69.664 76.584 69.728 76.504 69.824 76.408C69.92 76.28 70.08 76.136 70.304 75.976V75.88L69.824 75.784L69.776 75.592C69.776 75.368 69.84 75.192 69.968 75.064C70.16 74.808 70.272 74.584 70.304 74.392C70.144 74.36 70.032 74.232 69.968 74.008L69.824 73.48C69.824 73.48 69.856 73.048 69.92 72.184L70.256 72.328C70.288 72.296 70.304 72.2 70.304 72.04V71.752C70.208 71.656 70.128 71.56 70.064 71.464L70.016 71.368C70.016 71.304 70.048 71.176 70.112 70.984C70.176 70.792 70.208 70.696 70.208 70.696C70.208 70.568 70.144 70.456 70.016 70.36C70.016 70.232 70.048 70.072 70.112 69.88C70.112 69.88 70.08 69.832 70.016 69.736C70.016 69.64 70.032 69.592 70.064 69.592C70.032 69.432 70.048 69.256 70.112 69.064C70.208 68.904 70.256 68.824 70.256 68.824L70.16 68.344C70.128 68.184 70.096 68.072 70.064 68.008C70.032 67.912 70.016 67.848 70.016 67.816C70.016 67.752 70.08 67.656 70.208 67.528C70.336 67.4 70.4 67.304 70.4 67.24C70.4 67.24 70.368 67.144 70.304 66.952C70.208 66.856 70.16 66.792 70.16 66.76L70.4 65.944C70.24 65.88 70.208 65.688 70.304 65.368L70.448 64.792C70.416 64.632 70.384 64.504 70.352 64.408C70.352 64.312 70.352 64.232 70.352 64.168L70.448 63.496L70.688 63.16C70.656 63.096 70.608 62.968 70.544 62.776L70.592 62.008C70.496 61.816 70.448 61.704 70.448 61.672L70.832 60.856C70.832 60.856 70.816 60.84 70.784 60.808C70.784 60.776 70.768 60.728 70.736 60.664C70.736 60.568 70.736 60.456 70.736 60.328C70.768 60.168 70.8 59.976 70.832 59.752L70.736 59.176C70.768 59.208 70.8 58.968 70.832 58.456L70.736 58.168C70.704 58.104 70.672 58.056 70.64 58.024C70.64 57.992 70.64 57.96 70.64 57.928C70.672 57.864 70.704 57.8 70.736 57.736C70.768 57.672 70.784 57.592 70.784 57.496L70.88 56.008L71.024 52.408C71.184 52.024 71.264 51.752 71.264 51.592L71.216 51.352C71.216 51.288 71.2 51.24 71.168 51.208C71.136 51.176 71.12 51.144 71.12 51.112L71.072 50.536C71.072 50.472 71.136 50.296 71.264 50.008C71.392 50.04 71.536 50.072 71.696 50.104C71.856 50.104 72.016 50.136 72.176 50.2C72.272 50.296 72.416 50.392 72.608 50.488C72.64 50.488 72.704 50.424 72.8 50.296C72.896 50.2 72.976 50.152 73.04 50.152L73.328 50.344C73.52 50.472 73.808 50.568 74.192 50.632C74.256 50.504 74.32 50.408 74.384 50.344L74.768 50.296C74.896 50.264 75.008 50.248 75.104 50.248L75.296 50.392C75.36 50.456 75.456 50.472 75.584 50.44L76.064 50.344C76.192 50.312 76.288 50.296 76.352 50.296C76.416 50.296 76.464 50.296 76.496 50.296L77.36 50.536C77.424 50.504 77.488 50.488 77.552 50.488C77.648 50.456 77.76 50.424 77.888 50.392L78.32 50.488C78.352 50.616 78.448 50.68 78.608 50.68C78.64 50.68 78.72 50.632 78.848 50.536C78.976 50.408 79.056 50.376 79.088 50.44C79.088 50.44 79.184 50.472 79.376 50.536C79.44 50.472 79.52 50.424 79.616 50.392L79.952 50.488C80.016 50.52 80.064 50.552 80.096 50.584C80.16 50.616 80.208 50.632 80.24 50.632L80.48 50.584C80.48 50.648 80.544 50.792 80.672 51.016C80.736 50.92 80.736 50.792 80.672 50.632L81.056 50.488C81.12 50.52 81.216 50.568 81.344 50.632C81.472 50.696 81.616 50.76 81.776 50.824C81.776 50.888 81.824 50.968 81.92 51.064H82.064L82.352 50.728C82.416 50.696 82.496 50.68 82.592 50.68C82.72 50.68 82.848 50.664 82.976 50.632L83.312 50.68L83.216 52.504C83.056 52.632 82.976 52.776 82.976 52.936L83.024 53.32L82.928 55.624C82.928 55.848 82.752 55.96 82.4 55.96C82.304 55.864 82.208 55.8 82.112 55.768C81.984 55.736 81.808 55.72 81.584 55.72C81.36 55.688 81.104 55.688 80.816 55.72C80.752 55.72 80.672 55.72 80.576 55.72C80.48 55.688 80.352 55.656 80.192 55.624L79.76 55.576L78.992 55.672L78.176 55.624C78.112 55.624 78.048 55.608 77.984 55.576L77.792 55.528C77.536 55.496 77.328 55.48 77.168 55.48C77.04 55.48 76.96 55.48 76.928 55.48C76.8 55.384 76.672 55.336 76.544 55.336C76.48 55.336 76.368 55.4 76.208 55.528C76.048 55.656 75.936 55.72 75.872 55.72C75.872 55.816 75.856 55.88 75.824 55.912L75.872 56.152C75.904 56.216 75.92 56.296 75.92 56.392C75.92 56.456 75.936 56.552 75.968 56.68C75.648 56.808 75.472 57.272 75.44 58.072L75.632 58.12H75.968C76 58.152 76.016 58.232 76.016 58.36C76.016 58.488 75.952 58.616 75.824 58.744C75.664 58.904 75.584 58.984 75.584 58.984C75.712 59.272 75.792 59.576 75.824 59.896C75.824 59.96 75.76 60.104 75.632 60.328C75.504 60.552 75.44 60.744 75.44 60.904L75.344 60.76L75.2 60.856V61C75.264 61.064 75.392 61.096 75.584 61.096C75.584 61.16 75.584 61.24 75.584 61.336C75.616 61.4 75.648 61.48 75.68 61.576C75.84 61.832 75.984 61.96 76.112 61.96L76.448 61.816C76.48 61.848 76.544 61.912 76.64 62.008C76.768 62.072 76.848 62.104 76.88 62.104C76.848 62.072 76.976 61.976 77.264 61.816C77.552 61.848 77.76 61.832 77.888 61.768C78.112 61.992 78.272 62.104 78.368 62.104H78.56L78.896 61.96C78.928 61.96 78.976 61.944 79.04 61.912C79.104 61.88 79.168 61.848 79.232 61.816L79.52 61.72C79.616 61.72 79.728 61.784 79.856 61.912C80.016 62.072 80.112 62.152 80.144 62.152C80.24 62.088 80.384 62.04 80.576 62.008C80.576 62.008 80.576 62.04 80.576 62.104C80.608 62.136 80.624 62.2 80.624 62.296C80.624 62.424 80.608 62.616 80.576 62.872C80.576 63.096 80.56 63.384 80.528 63.736L80.432 63.928C80.464 64.024 80.48 64.248 80.48 64.6C80.448 64.664 80.416 64.776 80.384 64.936C80.352 65.096 80.336 65.208 80.336 65.272V65.368C80.336 65.432 80.368 65.592 80.432 65.848V66.04C80.432 66.264 80.368 66.456 80.24 66.616C79.92 66.936 79.728 67.096 79.664 67.096L79.232 66.952C79.168 66.952 79.088 66.968 78.992 67L78.704 67.048C78.64 66.984 78.56 66.936 78.464 66.904C78.4 66.84 78.304 66.792 78.176 66.76C78.112 66.792 78.032 66.824 77.936 66.856C77.872 66.856 77.776 66.872 77.648 66.904L77.12 66.76C76.8 66.664 76.592 66.616 76.496 66.616L76.016 66.712C75.952 66.712 75.872 66.6 75.776 66.376C75.904 66.344 75.984 66.264 76.016 66.136H76.064C76.128 66.136 76.224 66.136 76.352 66.136C76.48 66.136 76.608 66.152 76.736 66.184L76.784 65.992V65.896C76.784 65.8 76.72 65.688 76.592 65.56C76.56 65.56 76.496 65.56 76.4 65.56C76.336 65.528 76.24 65.496 76.112 65.464C76.048 65.528 76.016 65.656 76.016 65.848C75.92 65.816 75.824 65.896 75.728 66.088C75.664 66.024 75.552 66.072 75.392 66.232V66.568C75.328 66.632 75.264 66.744 75.2 66.904C74.976 67 74.864 67.128 74.864 67.288C74.864 67.288 74.896 67.32 74.96 67.384C74.992 67.416 75.008 67.464 75.008 67.528V67.72C75.008 67.816 75.008 67.912 75.008 68.008C75.008 68.104 74.992 68.232 74.96 68.392L75.104 68.584C75.04 68.776 74.8 69.176 74.384 69.784V69.88C74.384 70.008 74.432 70.12 74.528 70.216C74.592 70.024 74.768 69.816 75.056 69.592C75.184 69.752 75.248 69.912 75.248 70.072C75.248 70.104 75.056 70.296 74.672 70.648L74.864 70.984L75.056 70.936C75.184 70.936 75.248 71.032 75.248 71.224C75.184 71.288 75.104 71.416 75.008 71.608C74.944 71.736 74.912 71.864 74.912 71.992L75.056 72.136C75.056 72.168 74.96 72.376 74.768 72.76L74.912 73.144C74.912 73.304 74.8 73.4 74.576 73.432C74.608 73.464 74.688 73.48 74.816 73.48L74.864 73.624C74.768 73.72 74.704 73.816 74.672 73.912C74.736 74.104 74.848 74.216 75.008 74.248C75.168 74.248 75.296 74.264 75.392 74.296C75.648 74.264 75.904 74.248 76.16 74.248C76.416 74.248 76.688 74.248 76.976 74.248C77.008 74.376 77.088 74.44 77.216 74.44C77.28 74.44 77.424 74.296 77.648 74.008C77.84 74.008 77.968 74.184 78.032 74.536H78.176C78.176 74.44 78.192 74.36 78.224 74.296C78.448 74.2 78.784 74.168 79.232 74.2L79.808 74.44C79.808 74.472 79.936 74.488 80.192 74.488C80.32 74.488 80.4 74.504 80.432 74.536L81.056 74.392C81.152 74.392 81.232 74.36 81.296 74.296C81.328 74.264 81.44 74.248 81.632 74.248C81.888 74.312 82.016 74.504 82.016 74.824C82.016 74.952 81.968 75.288 81.872 75.832C81.872 75.832 81.84 75.864 81.776 75.928C81.744 75.992 81.728 76.056 81.728 76.12V77.32C81.728 77.32 81.632 77.352 81.44 77.416C81.664 77.864 81.776 78.232 81.776 78.52C81.776 78.68 81.68 78.84 81.488 79L81.632 79.624C81.504 79.688 81.44 79.72 81.44 79.72ZM81.68 52.936H81.728C81.92 52.936 82.08 52.824 82.208 52.6C82.112 52.472 82.032 52.408 81.968 52.408L81.392 52.744C81.488 52.872 81.584 52.936 81.68 52.936ZM80.816 53.944C80.816 53.912 80.768 53.848 80.672 53.752C80.672 53.752 80.64 53.784 80.576 53.848L80.816 53.944ZM73.376 54.616L73.616 54.088L73.376 53.992L73.184 53.848C72.992 53.976 72.896 54.152 72.896 54.376C73.088 54.504 73.248 54.584 73.376 54.616ZM72.176 58.264C72.176 58.2 72.16 58.136 72.128 58.072C72.128 58.008 72.112 57.944 72.08 57.88H71.744L71.696 58.072L71.888 58.216L72.176 58.264ZM70.4 61.72C70.4 61.656 70.416 61.64 70.448 61.672L70.4 61.72ZM72.992 62.776C73.152 62.52 73.12 62.328 72.896 62.2C72.864 62.232 72.816 62.328 72.752 62.488C72.752 62.584 72.832 62.68 72.992 62.776ZM71.84 63.304L71.888 62.584L71.744 62.44H71.408L71.36 62.584C71.36 62.584 71.408 62.68 71.504 62.872C71.568 62.904 71.568 63 71.504 63.16C71.6 63.16 71.712 63.208 71.84 63.304ZM72.464 64.552C72.464 64.488 72.464 64.408 72.464 64.312C72.464 64.216 72.48 64.12 72.512 64.024C72.48 64.024 72.416 64.072 72.32 64.168C72.32 64.264 72.368 64.392 72.464 64.552ZM78.224 64.456H78.272C78.336 64.456 78.496 64.424 78.752 64.36L78.512 64.12C78.448 64.024 78.336 64.056 78.176 64.216C78.176 64.344 78.192 64.424 78.224 64.456ZM73.568 69.4C73.6 69.368 73.568 69.304 73.472 69.208C73.408 69.208 73.36 69.224 73.328 69.256L73.568 69.4ZM73.424 70.936C73.488 70.936 73.616 70.904 73.808 70.84L73.664 70.456C73.536 70.488 73.472 70.552 73.472 70.648L73.424 70.936ZM71.504 71.944C71.504 71.88 71.504 71.8 71.504 71.704C71.504 71.608 71.52 71.528 71.552 71.464C71.52 71.432 71.456 71.464 71.36 71.56L71.504 71.944ZM71.552 73C71.584 72.936 71.568 72.872 71.504 72.808C71.44 72.744 71.36 72.744 71.264 72.808C71.296 72.872 71.392 72.936 71.552 73ZM71.072 75.64C71.168 75.512 71.184 75.384 71.12 75.256H70.928L70.832 75.544C70.896 75.608 70.976 75.64 71.072 75.64ZM78.224 77.656C78.224 77.592 78.192 77.528 78.128 77.464C78.096 77.432 78.032 77.448 77.936 77.512C77.936 77.608 78.032 77.656 78.224 77.656ZM78.368 78.712L79.232 78.568L79.088 78.232C79.024 78.072 78.896 77.992 78.704 77.992L78.272 78.136C78.272 78.232 78.272 78.328 78.272 78.424C78.304 78.52 78.336 78.616 78.368 78.712ZM91.2125 78.856C90.9245 78.856 90.7645 78.792 90.7325 78.664C90.7965 78.536 90.8285 78.44 90.8285 78.376C90.8285 78.312 90.7965 78.184 90.7325 77.992L90.6365 75.64C90.7005 75.512 90.7325 75.384 90.7325 75.256C90.7325 75.16 90.7165 75.048 90.6845 74.92C90.6845 74.792 90.6685 74.664 90.6365 74.536C90.6045 74.472 90.5885 74.36 90.5885 74.2C90.5885 74.104 90.5885 74.008 90.5885 73.912C90.6205 73.784 90.6525 73.656 90.6845 73.528C90.6845 73.528 90.7005 73.496 90.7325 73.432C90.7965 73.368 90.8285 73.32 90.8285 73.288L90.6845 73.096C90.5885 73.032 90.5405 72.984 90.5405 72.952V71.656C90.5405 71.624 90.5405 71.592 90.5405 71.56C90.5725 71.528 90.6045 71.48 90.6365 71.416C90.7005 71.224 90.7325 71.112 90.7325 71.08C90.7325 71.048 90.7005 71.032 90.6365 71.032C90.5405 71.032 90.4925 71.016 90.4925 70.984L90.4445 69.976C90.4445 69.912 90.4605 69.864 90.4925 69.832C90.5245 69.8 90.5405 69.736 90.5405 69.64L90.1565 68.68C90.1565 68.648 90.2525 68.488 90.4445 68.2C90.6045 67.88 90.6845 67.72 90.6845 67.72L90.3485 67.432C90.3805 67.272 90.3805 67.096 90.3485 66.904C90.3485 66.68 90.3485 66.456 90.3485 66.232V65.608L90.2525 65.464C90.1885 65.4 90.1565 65.336 90.1565 65.272C90.1245 65.176 90.1565 65.048 90.2525 64.888L90.4925 64.552C90.4925 64.552 90.4605 64.52 90.3965 64.456C90.3325 64.392 90.3005 64.36 90.3005 64.36L90.1085 63.4L90.1565 63.208L90.2045 63.064C90.2045 63.032 90.2045 62.984 90.2045 62.92C90.2045 62.856 90.1885 62.776 90.1565 62.68L90.1085 62.296C90.1405 62.232 90.1565 62.168 90.1565 62.104C90.1565 62.04 90.1725 61.96 90.2045 61.864L89.9645 60.232C89.9645 60.232 89.9965 60.088 90.0605 59.8C90.0285 59.352 89.9965 59.144 89.9645 59.176C90.0285 59.144 90.0765 59.096 90.1085 59.032C90.1725 58.968 90.2365 58.904 90.3005 58.84C90.3645 58.776 90.3165 58.664 90.1565 58.504C90.0605 58.472 89.9325 58.376 89.7725 58.216C89.8045 58.088 89.8365 57.928 89.8685 57.736C89.9325 57.512 89.9645 57.272 89.9645 57.016V56.344C89.9645 56.152 89.9805 55.96 90.0125 55.768C90.0445 55.576 90.0765 55.384 90.1085 55.192L89.8685 54.184L90.1565 53.848L89.8205 53.704C89.6605 53.64 89.6125 53.48 89.6765 53.224L89.7725 52.456C89.8045 52.2 89.8205 52.024 89.8205 51.928C89.8205 51.8 89.8205 51.72 89.8205 51.688L89.3405 50.632V50.536C89.3405 50.472 89.3405 50.424 89.3405 50.392C89.3725 50.328 89.4045 50.248 89.4365 50.152C89.5325 49.896 89.5965 49.768 89.6285 49.768L90.2525 50.008C90.2845 49.976 90.3805 49.928 90.5405 49.864C90.7325 49.8 90.8445 49.768 90.8765 49.768L91.1165 49.816C91.1485 49.816 91.1645 49.832 91.1645 49.864C91.1965 49.864 91.2285 49.864 91.2605 49.864C91.4845 49.896 91.6765 49.928 91.8365 49.96C92.0285 49.96 92.1885 49.944 92.3165 49.912C92.4125 49.912 92.4765 49.848 92.5085 49.72C92.5405 49.656 92.6525 49.592 92.8445 49.528C93.0045 49.528 93.1325 49.544 93.2285 49.576C93.3565 49.576 93.4685 49.592 93.5645 49.624C93.9165 49.752 94.0765 49.832 94.0445 49.864C94.0765 49.864 94.1725 49.832 94.3325 49.768L94.5725 49.816C94.6365 49.816 94.6685 49.832 94.6685 49.864C94.7005 49.864 94.7325 49.864 94.7645 49.864C94.8605 49.768 94.9565 49.688 95.0525 49.624C95.0525 49.624 95.3405 49.592 95.9165 49.528C96.0765 49.528 96.2205 49.56 96.3485 49.624C96.4125 49.656 96.4765 49.704 96.5405 49.768C96.6365 49.832 96.7325 49.896 96.8285 49.96C96.8925 49.992 96.8925 50.088 96.8285 50.248L96.9725 50.392C97.0365 50.392 97.0845 50.376 97.1165 50.344C97.3725 49.8 97.5325 49.528 97.5965 49.528C97.6605 49.528 97.7405 49.64 97.8365 49.864C97.9325 50.12 98.0445 50.232 98.1725 50.2C98.2045 50.136 98.3325 49.992 98.5565 49.768C98.5885 49.736 98.6205 49.752 98.6525 49.816C98.7485 49.912 98.8125 49.96 98.8445 49.96C99.2285 50.12 99.5165 50.2 99.7085 50.2L99.8045 50.152H99.9485C100.045 50.152 100.189 50.28 100.381 50.536C100.541 50.792 100.621 50.984 100.621 51.112C100.653 51.208 100.669 51.4 100.669 51.688L100.717 51.784L100.813 51.88C100.941 51.88 101.037 51.608 101.101 51.064H101.341V51.208C101.341 51.304 101.357 51.352 101.389 51.352C101.517 51.544 101.677 51.736 101.869 51.928C101.933 51.928 101.997 51.944 102.061 51.976C102.125 51.976 102.205 51.992 102.301 52.024L102.541 52.6C102.541 52.632 102.525 52.68 102.493 52.744C102.493 52.776 102.493 52.824 102.493 52.888C102.493 53.016 102.509 53.144 102.541 53.272C102.605 53.4 102.653 53.544 102.685 53.704C102.813 53.64 102.925 53.624 103.021 53.656C103.181 53.912 103.261 54.168 103.261 54.424C103.293 54.488 103.277 54.6 103.213 54.76C103.117 54.888 103.069 55.032 103.069 55.192L103.213 55.912C103.245 55.944 103.277 55.992 103.309 56.056C103.373 56.12 103.421 56.184 103.453 56.248L103.501 56.776C103.533 56.808 103.565 56.84 103.597 56.872C103.629 56.904 103.661 56.952 103.693 57.016V57.256C103.693 57.512 103.645 57.672 103.549 57.736C103.517 57.736 103.501 57.784 103.501 57.88C103.501 58.072 103.565 58.344 103.693 58.696V58.648L103.837 59.032L103.741 59.704C103.741 59.736 103.725 59.768 103.693 59.8L103.645 59.848C103.645 59.944 103.661 60.008 103.693 60.04V60.184C103.693 60.216 103.677 60.248 103.645 60.28C103.645 60.28 103.645 60.296 103.645 60.328L103.693 60.808C103.725 60.84 103.757 60.904 103.789 61C103.821 61.064 103.853 61.144 103.885 61.24L103.789 61.672C103.757 61.704 103.741 61.768 103.741 61.864C103.773 61.928 103.773 62.024 103.741 62.152L103.693 62.44C103.693 62.504 103.725 62.6 103.789 62.728C103.981 62.728 104.077 62.856 104.077 63.112C104.077 63.176 104.029 63.256 103.933 63.352C103.837 63.448 103.725 63.592 103.597 63.784V63.832C103.597 63.832 103.677 63.864 103.837 63.928C103.965 63.96 104.029 64.04 104.029 64.168L103.981 64.312C103.981 64.344 103.965 64.376 103.933 64.408C103.901 64.408 103.885 64.424 103.885 64.456L104.029 65.032L103.885 65.224C103.789 65.32 103.741 65.384 103.741 65.416C103.741 65.448 103.805 65.528 103.933 65.656C104.029 65.784 104.077 65.864 104.077 65.896L103.981 66.184C103.917 66.408 103.885 66.52 103.885 66.52C103.885 66.552 104.013 66.648 104.269 66.808V67.048C104.013 67.112 103.869 67.416 103.837 67.96C103.837 68.056 103.901 68.12 104.029 68.152C104.125 68.248 104.173 68.312 104.173 68.344C104.173 68.376 104.157 68.408 104.125 68.44L104.077 68.488L104.125 69.496C104.157 69.528 104.141 69.592 104.077 69.688L104.221 70.216C104.253 70.28 104.237 70.296 104.173 70.264C104.141 70.232 104.109 70.28 104.077 70.408L104.029 70.84L104.173 71.416L104.317 72.04C104.317 72.136 104.253 72.248 104.125 72.376C104.029 72.472 103.981 72.536 103.981 72.568C103.885 72.856 103.837 72.968 103.837 72.904C103.837 72.936 103.869 73.016 103.933 73.144C103.997 73.24 103.997 73.32 103.933 73.384L103.693 73.672C103.661 73.832 103.629 74.04 103.597 74.296C103.565 74.552 103.517 74.84 103.453 75.16C103.357 75.192 103.197 75.32 102.973 75.544C102.973 75.576 102.957 75.64 102.925 75.736C102.925 75.832 102.909 75.96 102.877 76.12C102.845 76.216 102.765 76.28 102.637 76.312C102.445 76.376 102.349 76.408 102.349 76.408C102.285 76.536 102.189 76.68 102.061 76.84C101.965 77 101.837 77.16 101.677 77.32L101.629 77.272H101.581L100.477 77.8C100.445 77.8 100.381 77.8 100.285 77.8C100.221 77.8 100.125 77.816 99.9965 77.848C99.9005 77.88 99.7725 77.928 99.6125 77.992C99.4845 78.056 99.3405 78.12 99.1805 78.184C99.1165 78.216 99.0205 78.232 98.8925 78.232C98.7645 78.232 98.6205 78.248 98.4605 78.28L98.1245 78.184L97.6925 78.424L96.7805 78.472C96.7805 78.44 96.7485 78.424 96.6845 78.424C96.6205 78.392 96.5725 78.376 96.5405 78.376C96.5405 78.376 96.4445 78.408 96.2525 78.472L95.9645 78.568C95.9005 78.536 95.8205 78.52 95.7245 78.52C95.6605 78.488 95.5645 78.456 95.4365 78.424C95.2125 78.552 94.9885 78.632 94.7645 78.664L94.4285 78.568C94.3005 78.536 94.2045 78.52 94.1405 78.52C94.1085 78.52 94.0765 78.52 94.0445 78.52L93.6605 78.616L93.2285 78.712L92.4605 78.664C92.2365 78.632 92.0605 78.632 91.9325 78.664C91.8045 78.664 91.7245 78.664 91.6925 78.664L91.5005 78.76C91.3085 78.824 91.2125 78.856 91.2125 78.856ZM94.6685 51.304C94.8285 51.304 94.9885 51.24 95.1485 51.112C95.1805 51.08 95.1965 51.016 95.1965 50.92C95.1965 50.76 95.1005 50.68 94.9085 50.68C94.5885 50.712 94.4285 50.872 94.4285 51.16L94.4765 51.256C94.5085 51.288 94.5725 51.304 94.6685 51.304ZM93.4685 52.024C93.5005 51.96 93.4845 51.896 93.4205 51.832C93.3885 51.8 93.3085 51.816 93.1805 51.88C93.2445 51.976 93.3405 52.024 93.4685 52.024ZM100.141 52.216C100.205 52.216 100.157 52.168 99.9965 52.072C99.9965 52.072 99.9645 52.104 99.9005 52.168C99.9325 52.2 100.013 52.216 100.141 52.216ZM99.2285 52.936C99.2285 52.872 99.1805 52.824 99.0845 52.792L98.9405 52.84C98.9405 52.84 99.0365 52.872 99.2285 52.936ZM100.189 53.8L100.525 53.704L100.333 53.32C100.205 53.352 100.157 53.416 100.189 53.512V53.8ZM95.9165 73.816C95.9805 73.752 96.0765 73.688 96.2045 73.624C96.3325 73.56 96.4765 73.496 96.6365 73.432C96.9565 73.432 97.3245 73.384 97.7405 73.288C97.8045 73.256 97.8685 73.224 97.9325 73.192C97.9965 73.16 98.0765 73.128 98.1725 73.096H98.4125C98.4765 73.096 98.5245 73.112 98.5565 73.144C98.5885 73.144 98.6205 73.144 98.6525 73.144C98.8445 73.144 98.9085 73.112 98.8445 73.048C98.7805 72.888 98.7965 72.712 98.8925 72.52L99.0845 72.088C99.0525 71.992 99.0365 71.88 99.0365 71.752C99.0365 71.624 99.0205 71.496 98.9885 71.368C99.0845 70.472 99.1165 70.008 99.0845 69.976V69.016C99.0845 68.568 99.0365 68.232 98.9405 68.008C99.0045 67.944 99.0525 67.88 99.0845 67.816C99.1485 67.72 99.1965 67.608 99.2285 67.48C99.1325 67.384 99.0365 67.24 98.9405 67.048C98.9405 67.048 98.9725 66.984 99.0365 66.856C99.1005 66.792 99.1325 66.744 99.1325 66.712C99.0365 66.616 98.9405 66.472 98.8445 66.28L98.9885 65.704C99.0525 65.512 99.0525 65.384 98.9885 65.32L98.8445 65.176C98.7805 65.016 98.7805 64.888 98.8445 64.792C99.0045 64.216 99.0845 63.976 99.0845 64.072C99.0845 64.04 99.0205 63.96 98.8925 63.832C98.7325 63.736 98.6525 63.656 98.6525 63.592L98.7485 63.352C98.8125 63.224 98.8445 63.144 98.8445 63.112C98.8125 62.984 98.7965 62.84 98.7965 62.68C98.7965 62.488 98.7965 62.28 98.7965 62.056L98.8445 61.864C98.8765 61.8 98.8925 61.736 98.8925 61.672L98.7485 61.384C98.7485 61.256 98.7485 61.096 98.7485 60.904C98.7485 60.712 98.7325 60.504 98.7005 60.28L98.5565 59.704L98.7005 58.984L98.4605 58.456C98.4925 58.2 98.5405 57.784 98.6045 57.208L98.3165 57.064C98.3165 56.936 98.3005 56.792 98.2685 56.632C98.2685 56.472 98.2525 56.28 98.2205 56.056C98.1565 55.704 97.8525 55.4 97.3085 55.144L96.9245 55.096C96.8925 55.032 96.8605 54.984 96.8285 54.952C96.7965 54.888 96.7485 54.824 96.6845 54.76C96.6205 54.728 96.5245 54.712 96.3965 54.712C96.3005 54.68 96.1725 54.664 96.0125 54.664C95.9485 54.728 95.8845 54.76 95.8205 54.76L95.3405 54.616C95.2445 54.616 95.1165 54.68 94.9565 54.808C94.7325 54.936 94.6205 55.064 94.6205 55.192V55.288C94.6205 55.352 94.6205 55.432 94.6205 55.528C94.6525 55.592 94.6845 55.672 94.7165 55.768L94.8605 56.152C94.7965 56.28 94.7645 56.408 94.7645 56.536L94.7165 57.448C94.7165 57.512 94.7005 57.56 94.6685 57.592L94.5725 57.784L94.8125 58.024C94.7485 58.216 94.7485 58.488 94.8125 58.84L95.0045 59.08V59.176C95.0045 59.208 94.9885 59.272 94.9565 59.368C94.9565 59.432 94.9405 59.512 94.9085 59.608L95.0525 59.944C95.0205 60.648 95.0205 61.064 95.0525 61.192L95.1965 61.768L95.1485 62.104L95.2925 62.44C95.2925 62.44 95.2445 62.52 95.1485 62.68C95.0205 62.808 94.9565 62.936 94.9565 63.064L95.0525 63.352C95.0845 63.384 95.0845 63.448 95.0525 63.544C95.0525 63.608 95.0685 63.704 95.1005 63.832L95.1485 64.264L95.2445 64.648C95.2125 64.68 95.1965 64.744 95.1965 64.84C95.2605 65 95.2765 65.08 95.2445 65.08L95.1005 65.464C95.1005 65.464 95.1165 65.512 95.1485 65.608C95.1805 65.704 95.2285 65.832 95.2925 65.992C95.3565 66.152 95.3885 66.312 95.3885 66.472C95.4205 66.6 95.4525 66.728 95.4845 66.856L95.2925 68.104C95.2925 68.136 95.3405 68.28 95.4365 68.536C95.5325 68.76 95.5805 68.92 95.5805 69.016C95.5805 69.208 95.5325 69.432 95.4365 69.688C95.3405 69.944 95.2765 70.072 95.2445 70.072L95.4365 70.552C95.5005 70.712 95.5325 70.84 95.5325 70.936C95.5645 71 95.5805 71.048 95.5805 71.08L95.4845 71.272C95.4205 71.464 95.3885 71.56 95.3885 71.56V71.992C95.3885 72.088 95.4365 72.216 95.5325 72.376C95.5965 72.504 95.6285 72.664 95.6285 72.856C95.6285 72.984 95.5325 73.08 95.3405 73.144C95.1485 73.24 95.0525 73.32 95.0525 73.384C95.0525 73.448 95.0845 73.512 95.1485 73.576C95.3725 73.736 95.6285 73.816 95.9165 73.816ZM100.045 63.976C100.077 63.976 100.157 63.944 100.285 63.88C100.413 63.784 100.477 63.736 100.477 63.736V63.64C100.445 63.672 100.381 63.672 100.285 63.64L100.045 63.976ZM100.957 64.648C101.021 64.648 101.053 64.6 101.053 64.504V64.408L100.909 64.456L100.957 64.648ZM91.5965 65.368C92.0125 65.368 92.1885 65.336 92.1245 65.272C92.0285 64.92 91.7885 64.728 91.4045 64.696L91.3565 64.792C91.2925 64.856 91.2445 64.888 91.2125 64.888L91.1645 64.84H91.1165C90.9245 64.84 90.7965 64.904 90.7325 65.032C90.7005 65.096 90.7325 65.16 90.8285 65.224C91.2765 65.32 91.5325 65.368 91.5965 65.368ZM100.669 68.824C100.893 68.824 101.037 68.696 101.101 68.44C100.813 68.44 100.669 68.568 100.669 68.824ZM93.6125 69.064C93.6445 69.032 93.6125 68.968 93.5165 68.872L93.3725 68.968C93.4365 68.968 93.4845 68.984 93.5165 69.016L93.6125 69.064ZM100.573 70.552L101.677 70.408V70.36C101.517 70.296 101.389 70.152 101.293 69.928C101.165 69.704 101.069 69.592 101.005 69.592C100.845 69.592 100.765 69.672 100.765 69.832C100.765 70.088 100.685 70.296 100.525 70.456C100.525 70.456 100.541 70.488 100.573 70.552ZM93.6605 70.648L93.9965 70.504L93.8525 70.12C93.7245 70.152 93.6605 70.216 93.6605 70.312V70.648ZM91.8365 71.32C91.8045 71.32 91.7405 71.368 91.6445 71.464L91.8365 71.8V71.32ZM99.1325 76.84C99.1325 76.744 99.1005 76.664 99.0365 76.6C98.9725 76.536 98.9085 76.568 98.8445 76.696C98.8445 76.792 98.9405 76.84 99.1325 76.84ZM92.1725 76.984L92.3645 77.368V76.888C92.3325 76.856 92.2685 76.888 92.1725 76.984ZM98.0765 77.416C98.0765 77.352 98.0445 77.288 97.9805 77.224C97.9485 77.16 97.8845 77.176 97.7885 77.272C97.8525 77.368 97.9485 77.416 98.0765 77.416ZM113.883 78.856C113.595 78.856 113.435 78.792 113.403 78.664C113.467 78.536 113.499 78.44 113.499 78.376C113.499 78.312 113.467 78.184 113.403 77.992L113.307 75.64C113.371 75.512 113.403 75.384 113.403 75.256C113.403 75.16 113.387 75.048 113.355 74.92C113.355 74.792 113.339 74.664 113.307 74.536C113.275 74.472 113.259 74.36 113.259 74.2C113.259 74.104 113.259 74.008 113.259 73.912C113.291 73.784 113.323 73.656 113.355 73.528C113.355 73.528 113.371 73.496 113.403 73.432C113.467 73.368 113.499 73.32 113.499 73.288L113.355 73.096C113.259 73.032 113.211 72.984 113.211 72.952V71.656C113.211 71.624 113.211 71.592 113.211 71.56C113.243 71.528 113.275 71.48 113.307 71.416C113.371 71.224 113.403 71.112 113.403 71.08C113.403 71.048 113.371 71.032 113.307 71.032C113.211 71.032 113.163 71.016 113.163 70.984L113.115 69.976C113.115 69.912 113.131 69.864 113.163 69.832C113.195 69.8 113.211 69.736 113.211 69.64L112.827 68.68C112.827 68.648 112.923 68.488 113.115 68.2C113.275 67.88 113.355 67.72 113.355 67.72L113.019 67.432C113.051 67.272 113.051 67.096 113.019 66.904C113.019 66.68 113.019 66.456 113.019 66.232V65.608L112.923 65.464C112.859 65.4 112.827 65.336 112.827 65.272C112.795 65.176 112.827 65.048 112.923 64.888L113.163 64.552C113.163 64.552 113.131 64.52 113.067 64.456C113.003 64.392 112.971 64.36 112.971 64.36L112.779 63.4L112.827 63.208L112.875 63.064C112.875 63.032 112.875 62.984 112.875 62.92C112.875 62.856 112.859 62.776 112.827 62.68L112.779 62.296C112.811 62.232 112.827 62.168 112.827 62.104C112.827 62.04 112.843 61.96 112.875 61.864L112.635 60.232C112.635 60.232 112.667 60.088 112.731 59.8C112.699 59.352 112.667 59.144 112.635 59.176C112.699 59.144 112.747 59.096 112.779 59.032C112.843 58.968 112.907 58.904 112.971 58.84C113.035 58.776 112.987 58.664 112.827 58.504C112.731 58.472 112.603 58.376 112.443 58.216C112.475 58.088 112.507 57.928 112.539 57.736C112.603 57.512 112.635 57.272 112.635 57.016V56.344C112.635 56.152 112.651 55.96 112.683 55.768C112.715 55.576 112.747 55.384 112.779 55.192L112.539 54.184L112.827 53.848L112.491 53.704C112.331 53.64 112.283 53.48 112.347 53.224L112.443 52.456C112.475 52.2 112.491 52.024 112.491 51.928C112.491 51.8 112.491 51.72 112.491 51.688L112.011 50.632V50.536C112.011 50.472 112.011 50.424 112.011 50.392C112.043 50.328 112.075 50.248 112.107 50.152C112.203 49.896 112.267 49.768 112.299 49.768L112.923 50.008C112.955 49.976 113.051 49.928 113.211 49.864C113.403 49.8 113.515 49.768 113.547 49.768L113.787 49.816C113.819 49.816 113.835 49.832 113.835 49.864C113.867 49.864 113.899 49.864 113.931 49.864C114.155 49.896 114.347 49.928 114.507 49.96C114.699 49.96 114.859 49.944 114.987 49.912C115.083 49.912 115.147 49.848 115.179 49.72C115.211 49.656 115.323 49.592 115.515 49.528C115.675 49.528 115.803 49.544 115.899 49.576C116.027 49.576 116.139 49.592 116.235 49.624C116.587 49.752 116.747 49.832 116.715 49.864C116.747 49.864 116.843 49.832 117.003 49.768L117.243 49.816C117.307 49.816 117.339 49.832 117.339 49.864C117.371 49.864 117.403 49.864 117.435 49.864C117.531 49.768 117.627 49.688 117.723 49.624C117.723 49.624 118.011 49.592 118.587 49.528C118.747 49.528 118.891 49.56 119.019 49.624C119.083 49.656 119.147 49.704 119.211 49.768C119.307 49.832 119.403 49.896 119.499 49.96C119.563 49.992 119.563 50.088 119.499 50.248L119.643 50.392C119.707 50.392 119.755 50.376 119.787 50.344C120.043 49.8 120.203 49.528 120.267 49.528C120.331 49.528 120.411 49.64 120.507 49.864C120.603 50.12 120.715 50.232 120.843 50.2C120.875 50.136 121.003 49.992 121.227 49.768C121.259 49.736 121.291 49.752 121.323 49.816C121.419 49.912 121.483 49.96 121.515 49.96C121.899 50.12 122.187 50.2 122.379 50.2L122.475 50.152H122.619C122.715 50.152 122.859 50.28 123.051 50.536C123.211 50.792 123.291 50.984 123.291 51.112C123.323 51.208 123.339 51.4 123.339 51.688L123.387 51.784L123.483 51.88C123.611 51.88 123.707 51.608 123.771 51.064H124.011V51.208C124.011 51.304 124.027 51.352 124.059 51.352C124.187 51.544 124.347 51.736 124.539 51.928C124.603 51.928 124.667 51.944 124.731 51.976C124.795 51.976 124.875 51.992 124.971 52.024L125.211 52.6C125.211 52.632 125.195 52.68 125.163 52.744C125.163 52.776 125.163 52.824 125.163 52.888C125.163 53.016 125.179 53.144 125.211 53.272C125.275 53.4 125.323 53.544 125.355 53.704C125.483 53.64 125.595 53.624 125.691 53.656C125.851 53.912 125.931 54.168 125.931 54.424C125.963 54.488 125.947 54.6 125.883 54.76C125.787 54.888 125.739 55.032 125.739 55.192L125.883 55.912C125.915 55.944 125.947 55.992 125.979 56.056C126.043 56.12 126.091 56.184 126.123 56.248L126.171 56.776C126.203 56.808 126.235 56.84 126.267 56.872C126.299 56.904 126.331 56.952 126.363 57.016V57.256C126.363 57.512 126.315 57.672 126.219 57.736C126.187 57.736 126.171 57.784 126.171 57.88C126.171 58.072 126.235 58.344 126.363 58.696V58.648L126.507 59.032L126.411 59.704C126.411 59.736 126.395 59.768 126.363 59.8L126.315 59.848C126.315 59.944 126.331 60.008 126.363 60.04V60.184C126.363 60.216 126.347 60.248 126.315 60.28C126.315 60.28 126.315 60.296 126.315 60.328L126.363 60.808C126.395 60.84 126.427 60.904 126.459 61C126.491 61.064 126.523 61.144 126.555 61.24L126.459 61.672C126.427 61.704 126.411 61.768 126.411 61.864C126.443 61.928 126.443 62.024 126.411 62.152L126.363 62.44C126.363 62.504 126.395 62.6 126.459 62.728C126.651 62.728 126.747 62.856 126.747 63.112C126.747 63.176 126.699 63.256 126.603 63.352C126.507 63.448 126.395 63.592 126.267 63.784V63.832C126.267 63.832 126.347 63.864 126.507 63.928C126.635 63.96 126.699 64.04 126.699 64.168L126.651 64.312C126.651 64.344 126.635 64.376 126.603 64.408C126.571 64.408 126.555 64.424 126.555 64.456L126.699 65.032L126.555 65.224C126.459 65.32 126.411 65.384 126.411 65.416C126.411 65.448 126.475 65.528 126.603 65.656C126.699 65.784 126.747 65.864 126.747 65.896L126.651 66.184C126.587 66.408 126.555 66.52 126.555 66.52C126.555 66.552 126.683 66.648 126.939 66.808V67.048C126.683 67.112 126.539 67.416 126.507 67.96C126.507 68.056 126.571 68.12 126.699 68.152C126.795 68.248 126.843 68.312 126.843 68.344C126.843 68.376 126.827 68.408 126.795 68.44L126.747 68.488L126.795 69.496C126.827 69.528 126.811 69.592 126.747 69.688L126.891 70.216C126.923 70.28 126.907 70.296 126.843 70.264C126.811 70.232 126.779 70.28 126.747 70.408L126.699 70.84L126.843 71.416L126.987 72.04C126.987 72.136 126.923 72.248 126.795 72.376C126.699 72.472 126.651 72.536 126.651 72.568C126.555 72.856 126.507 72.968 126.507 72.904C126.507 72.936 126.539 73.016 126.603 73.144C126.667 73.24 126.667 73.32 126.603 73.384L126.363 73.672C126.331 73.832 126.299 74.04 126.267 74.296C126.235 74.552 126.187 74.84 126.123 75.16C126.027 75.192 125.867 75.32 125.643 75.544C125.643 75.576 125.627 75.64 125.595 75.736C125.595 75.832 125.579 75.96 125.547 76.12C125.515 76.216 125.435 76.28 125.307 76.312C125.115 76.376 125.019 76.408 125.019 76.408C124.955 76.536 124.859 76.68 124.731 76.84C124.635 77 124.507 77.16 124.347 77.32L124.299 77.272H124.251L123.147 77.8C123.115 77.8 123.051 77.8 122.955 77.8C122.891 77.8 122.795 77.816 122.667 77.848C122.571 77.88 122.443 77.928 122.283 77.992C122.155 78.056 122.011 78.12 121.851 78.184C121.787 78.216 121.691 78.232 121.563 78.232C121.435 78.232 121.291 78.248 121.131 78.28L120.795 78.184L120.363 78.424L119.451 78.472C119.451 78.44 119.419 78.424 119.355 78.424C119.291 78.392 119.243 78.376 119.211 78.376C119.211 78.376 119.115 78.408 118.923 78.472L118.635 78.568C118.571 78.536 118.491 78.52 118.395 78.52C118.331 78.488 118.235 78.456 118.107 78.424C117.883 78.552 117.659 78.632 117.435 78.664L117.099 78.568C116.971 78.536 116.875 78.52 116.811 78.52C116.779 78.52 116.747 78.52 116.715 78.52L116.331 78.616L115.899 78.712L115.131 78.664C114.907 78.632 114.731 78.632 114.603 78.664C114.475 78.664 114.395 78.664 114.363 78.664L114.171 78.76C113.979 78.824 113.883 78.856 113.883 78.856ZM117.339 51.304C117.499 51.304 117.659 51.24 117.819 51.112C117.851 51.08 117.867 51.016 117.867 50.92C117.867 50.76 117.771 50.68 117.579 50.68C117.259 50.712 117.099 50.872 117.099 51.16L117.147 51.256C117.179 51.288 117.243 51.304 117.339 51.304ZM116.139 52.024C116.171 51.96 116.155 51.896 116.091 51.832C116.059 51.8 115.979 51.816 115.851 51.88C115.915 51.976 116.011 52.024 116.139 52.024ZM122.811 52.216C122.875 52.216 122.827 52.168 122.667 52.072C122.667 52.072 122.635 52.104 122.571 52.168C122.603 52.2 122.683 52.216 122.811 52.216ZM121.899 52.936C121.899 52.872 121.851 52.824 121.755 52.792L121.611 52.84C121.611 52.84 121.707 52.872 121.899 52.936ZM122.859 53.8L123.195 53.704L123.003 53.32C122.875 53.352 122.827 53.416 122.859 53.512V53.8ZM118.587 73.816C118.651 73.752 118.747 73.688 118.875 73.624C119.003 73.56 119.147 73.496 119.307 73.432C119.627 73.432 119.995 73.384 120.411 73.288C120.475 73.256 120.539 73.224 120.603 73.192C120.667 73.16 120.747 73.128 120.843 73.096H121.083C121.147 73.096 121.195 73.112 121.227 73.144C121.259 73.144 121.291 73.144 121.323 73.144C121.515 73.144 121.579 73.112 121.515 73.048C121.451 72.888 121.467 72.712 121.563 72.52L121.755 72.088C121.723 71.992 121.707 71.88 121.707 71.752C121.707 71.624 121.691 71.496 121.659 71.368C121.755 70.472 121.787 70.008 121.755 69.976V69.016C121.755 68.568 121.707 68.232 121.611 68.008C121.675 67.944 121.723 67.88 121.755 67.816C121.819 67.72 121.867 67.608 121.899 67.48C121.803 67.384 121.707 67.24 121.611 67.048C121.611 67.048 121.643 66.984 121.707 66.856C121.771 66.792 121.803 66.744 121.803 66.712C121.707 66.616 121.611 66.472 121.515 66.28L121.659 65.704C121.723 65.512 121.723 65.384 121.659 65.32L121.515 65.176C121.451 65.016 121.451 64.888 121.515 64.792C121.675 64.216 121.755 63.976 121.755 64.072C121.755 64.04 121.691 63.96 121.563 63.832C121.403 63.736 121.323 63.656 121.323 63.592L121.419 63.352C121.483 63.224 121.515 63.144 121.515 63.112C121.483 62.984 121.467 62.84 121.467 62.68C121.467 62.488 121.467 62.28 121.467 62.056L121.515 61.864C121.547 61.8 121.563 61.736 121.563 61.672L121.419 61.384C121.419 61.256 121.419 61.096 121.419 60.904C121.419 60.712 121.403 60.504 121.371 60.28L121.227 59.704L121.371 58.984L121.131 58.456C121.163 58.2 121.211 57.784 121.275 57.208L120.987 57.064C120.987 56.936 120.971 56.792 120.939 56.632C120.939 56.472 120.923 56.28 120.891 56.056C120.827 55.704 120.523 55.4 119.979 55.144L119.595 55.096C119.563 55.032 119.531 54.984 119.499 54.952C119.467 54.888 119.419 54.824 119.355 54.76C119.291 54.728 119.195 54.712 119.067 54.712C118.971 54.68 118.843 54.664 118.683 54.664C118.619 54.728 118.555 54.76 118.491 54.76L118.011 54.616C117.915 54.616 117.787 54.68 117.627 54.808C117.403 54.936 117.291 55.064 117.291 55.192V55.288C117.291 55.352 117.291 55.432 117.291 55.528C117.323 55.592 117.355 55.672 117.387 55.768L117.531 56.152C117.467 56.28 117.435 56.408 117.435 56.536L117.387 57.448C117.387 57.512 117.371 57.56 117.339 57.592L117.243 57.784L117.483 58.024C117.419 58.216 117.419 58.488 117.483 58.84L117.675 59.08V59.176C117.675 59.208 117.659 59.272 117.627 59.368C117.627 59.432 117.611 59.512 117.579 59.608L117.723 59.944C117.691 60.648 117.691 61.064 117.723 61.192L117.867 61.768L117.819 62.104L117.963 62.44C117.963 62.44 117.915 62.52 117.819 62.68C117.691 62.808 117.627 62.936 117.627 63.064L117.723 63.352C117.755 63.384 117.755 63.448 117.723 63.544C117.723 63.608 117.739 63.704 117.771 63.832L117.819 64.264L117.915 64.648C117.883 64.68 117.867 64.744 117.867 64.84C117.931 65 117.947 65.08 117.915 65.08L117.771 65.464C117.771 65.464 117.787 65.512 117.819 65.608C117.851 65.704 117.899 65.832 117.963 65.992C118.027 66.152 118.059 66.312 118.059 66.472C118.091 66.6 118.123 66.728 118.155 66.856L117.963 68.104C117.963 68.136 118.011 68.28 118.107 68.536C118.203 68.76 118.251 68.92 118.251 69.016C118.251 69.208 118.203 69.432 118.107 69.688C118.011 69.944 117.947 70.072 117.915 70.072L118.107 70.552C118.171 70.712 118.203 70.84 118.203 70.936C118.235 71 118.251 71.048 118.251 71.08L118.155 71.272C118.091 71.464 118.059 71.56 118.059 71.56V71.992C118.059 72.088 118.107 72.216 118.203 72.376C118.267 72.504 118.299 72.664 118.299 72.856C118.299 72.984 118.203 73.08 118.011 73.144C117.819 73.24 117.723 73.32 117.723 73.384C117.723 73.448 117.755 73.512 117.819 73.576C118.043 73.736 118.299 73.816 118.587 73.816ZM122.715 63.976C122.747 63.976 122.827 63.944 122.955 63.88C123.083 63.784 123.147 63.736 123.147 63.736V63.64C123.115 63.672 123.051 63.672 122.955 63.64L122.715 63.976ZM123.627 64.648C123.691 64.648 123.723 64.6 123.723 64.504V64.408L123.579 64.456L123.627 64.648ZM114.267 65.368C114.683 65.368 114.859 65.336 114.795 65.272C114.699 64.92 114.459 64.728 114.075 64.696L114.027 64.792C113.963 64.856 113.915 64.888 113.883 64.888L113.835 64.84H113.787C113.595 64.84 113.467 64.904 113.403 65.032C113.371 65.096 113.403 65.16 113.499 65.224C113.947 65.32 114.203 65.368 114.267 65.368ZM123.339 68.824C123.563 68.824 123.707 68.696 123.771 68.44C123.483 68.44 123.339 68.568 123.339 68.824ZM116.283 69.064C116.315 69.032 116.283 68.968 116.187 68.872L116.043 68.968C116.107 68.968 116.155 68.984 116.187 69.016L116.283 69.064ZM123.243 70.552L124.347 70.408V70.36C124.187 70.296 124.059 70.152 123.963 69.928C123.835 69.704 123.739 69.592 123.675 69.592C123.515 69.592 123.435 69.672 123.435 69.832C123.435 70.088 123.355 70.296 123.195 70.456C123.195 70.456 123.211 70.488 123.243 70.552ZM116.331 70.648L116.667 70.504L116.523 70.12C116.395 70.152 116.331 70.216 116.331 70.312V70.648ZM114.507 71.32C114.475 71.32 114.411 71.368 114.315 71.464L114.507 71.8V71.32ZM121.803 76.84C121.803 76.744 121.771 76.664 121.707 76.6C121.643 76.536 121.579 76.568 121.515 76.696C121.515 76.792 121.611 76.84 121.803 76.84ZM114.843 76.984L115.035 77.368V76.888C115.003 76.856 114.939 76.888 114.843 76.984ZM120.747 77.416C120.747 77.352 120.715 77.288 120.651 77.224C120.619 77.16 120.555 77.176 120.459 77.272C120.523 77.368 120.619 77.416 120.747 77.416ZM139.098 79.384L138.762 79.144L138.57 79.192C138.506 79.224 138.426 79.24 138.33 79.24L137.946 79.048C137.722 78.92 137.578 78.856 137.514 78.856C137.418 78.856 137.354 78.92 137.322 79.048C137.194 79.176 137.082 79.224 136.986 79.192L136.794 79.144C136.698 79.112 136.602 79.096 136.506 79.096L136.266 79.192C136.138 79.224 136.042 79.224 135.978 79.192C135.978 79.192 135.882 79.16 135.69 79.096L135.402 78.952C135.402 78.952 135.226 79.048 134.874 79.24H134.634L134.538 79.096L134.682 78.376C134.714 78.216 134.762 78.056 134.826 77.896C134.89 77.704 134.938 77.496 134.97 77.272L134.826 77.032C134.794 76.936 134.746 76.856 134.682 76.792C134.65 76.728 134.634 76.664 134.634 76.6L134.874 75.88C134.842 75.496 134.842 74.92 134.874 74.152C135.098 74.152 135.322 74.104 135.546 74.008C135.546 73.944 135.434 73.848 135.21 73.72L134.826 73.528L135.114 73.24V72.808C135.018 72.712 134.954 72.616 134.922 72.52L134.874 71.848C134.906 71.464 135.002 71.096 135.162 70.744H135.354C135.418 70.744 135.466 70.632 135.498 70.408C135.498 70.216 135.482 70.104 135.45 70.072C135.418 70.104 135.338 70.12 135.21 70.12L135.018 69.736C134.986 69.512 134.954 69.336 134.922 69.208C134.922 69.048 134.938 68.904 134.97 68.776C134.97 68.552 135.098 68.312 135.354 68.056C135.386 67.96 135.402 67.864 135.402 67.768C135.402 67.672 135.402 67.592 135.402 67.528C135.402 67.272 135.354 67.128 135.258 67.096L135.45 64.936C135.258 64.68 135.162 64.472 135.162 64.312L135.21 62.92L135.498 61.096C135.498 61.064 135.418 60.968 135.258 60.808C135.386 60.616 135.45 60.456 135.45 60.328L135.546 59.32C135.514 59.256 135.498 59.192 135.498 59.128C135.498 59.032 135.482 58.92 135.45 58.792L135.546 58.312C135.578 58.28 135.626 58.248 135.69 58.216C135.754 58.184 135.818 58.152 135.882 58.12C135.946 58.024 135.898 57.976 135.738 57.976H135.498C135.53 57.944 135.562 57.816 135.594 57.592C135.562 57.464 135.546 57.336 135.546 57.208C135.546 57.048 135.546 56.872 135.546 56.68C135.578 56.52 135.594 56.392 135.594 56.296C135.626 56.168 135.642 56.072 135.642 56.008C135.642 55.784 135.626 55.608 135.594 55.48C135.594 55.352 135.61 55.272 135.642 55.24L135.834 55L135.594 54.76C135.562 54.728 135.546 54.6 135.546 54.376L135.786 53.368C135.754 53.304 135.738 53.16 135.738 52.936L135.882 52.648C135.85 52.584 135.802 52.52 135.738 52.456C135.706 52.36 135.674 52.248 135.642 52.12C135.642 52.088 135.674 52.04 135.738 51.976C135.802 51.912 135.834 51.848 135.834 51.784L135.69 51.016C135.722 50.984 135.754 50.904 135.786 50.776C135.754 50.712 135.706 50.616 135.642 50.488V50.104H136.074L136.458 50.344L137.418 50.488C137.418 50.52 137.37 50.664 137.274 50.92C137.338 50.984 137.418 50.984 137.514 50.92C137.546 50.856 137.53 50.712 137.466 50.488C137.53 50.424 137.706 50.392 137.994 50.392C138.218 50.392 138.394 50.424 138.522 50.488L138.906 50.2C138.874 50.232 138.954 50.312 139.146 50.44C139.338 50.504 139.53 50.536 139.722 50.536L139.866 50.44C139.898 50.408 139.946 50.392 140.01 50.392L140.394 50.44C140.458 50.44 140.522 50.456 140.586 50.488C140.65 50.52 140.698 50.536 140.73 50.536L140.922 50.44C141.05 50.376 141.114 50.344 141.114 50.344C141.434 50.344 141.562 50.44 141.498 50.632L141.402 51.256C141.338 51.32 141.274 51.432 141.21 51.592C141.178 51.624 141.162 51.704 141.162 51.832C141.162 52.056 141.146 52.184 141.114 52.216C140.922 52.312 140.826 52.376 140.826 52.408C140.762 52.344 140.698 52.296 140.634 52.264L140.538 52.408C140.506 52.44 140.538 52.472 140.634 52.504C140.666 52.504 140.698 52.488 140.73 52.456C140.73 52.424 140.746 52.424 140.778 52.456L141.21 52.696L141.114 54.328C140.89 54.456 140.746 54.776 140.682 55.288C140.81 55.416 140.922 55.48 141.018 55.48C141.05 55.48 141.082 55.464 141.114 55.432C141.114 55.4 141.13 55.384 141.162 55.384C141.226 55.384 141.338 55.464 141.498 55.624C141.402 55.816 141.258 55.816 141.066 55.624L140.922 56.008C140.794 56.072 140.698 56.152 140.634 56.248C140.634 56.536 140.762 56.728 141.018 56.824C140.954 56.792 140.89 56.92 140.826 57.208C140.986 57.272 141.066 57.384 141.066 57.544C141.066 57.64 140.986 57.768 140.826 57.928L140.922 58.12L140.874 58.312C140.874 58.28 140.794 58.248 140.634 58.216C140.634 58.216 140.554 58.296 140.394 58.456C140.33 58.488 140.25 58.52 140.154 58.552C140.058 58.584 139.93 58.632 139.77 58.696C139.834 58.792 139.914 58.84 140.01 58.84H140.202C140.202 58.904 140.234 58.968 140.298 59.032C140.266 59.096 140.25 59.224 140.25 59.416C140.41 59.48 140.57 59.608 140.73 59.8C140.762 59.896 140.778 60.072 140.778 60.328C140.746 60.616 140.698 60.792 140.634 60.856C140.602 60.92 140.586 60.984 140.586 61.048L140.778 61.912C140.81 62.04 140.826 62.2 140.826 62.392C140.826 62.52 140.81 62.632 140.778 62.728C140.778 62.792 140.762 62.856 140.73 62.92C140.826 63.144 140.874 63.304 140.874 63.4L140.49 63.928C140.458 63.992 140.442 64.104 140.442 64.264C140.474 64.264 140.538 64.376 140.634 64.6C140.698 64.728 140.73 64.84 140.73 64.936C140.73 65.096 140.634 65.224 140.442 65.32C140.442 65.384 140.458 65.464 140.49 65.56C140.522 65.656 140.554 65.784 140.586 65.944L140.682 66.376C140.65 66.408 140.618 66.456 140.586 66.52C140.586 66.584 140.554 66.648 140.49 66.712L140.586 67.192C140.554 67.224 140.506 67.288 140.442 67.384C140.378 67.448 140.314 67.528 140.25 67.624C140.218 67.72 140.202 67.896 140.202 68.152C140.202 68.28 140.25 68.424 140.346 68.584L140.298 68.776C140.362 68.808 140.394 68.936 140.394 69.16V69.592C140.49 69.816 140.554 69.944 140.586 69.976L140.154 70.456C140.218 70.488 140.282 70.52 140.346 70.552C140.41 70.584 140.49 70.632 140.586 70.696C140.522 70.952 140.442 71.176 140.346 71.368C140.186 71.624 140.106 71.784 140.106 71.848L140.394 73.24C140.362 73.272 140.33 73.304 140.298 73.336C140.266 73.368 140.234 73.416 140.202 73.48L140.154 74.392C140.122 74.424 140.042 74.472 139.914 74.536C139.914 74.696 140.01 74.808 140.202 74.872C140.042 74.936 139.962 75.016 139.962 75.112V75.208C139.962 75.368 140.026 75.496 140.154 75.592C140.314 75.752 140.394 75.88 140.394 75.976L140.154 76.312V76.84H140.058C139.866 76.84 139.642 76.904 139.386 77.032L139.578 77.224H139.674C140.026 77.224 140.218 77.576 140.25 78.28H139.962C139.898 78.216 139.77 78.312 139.578 78.568C139.578 78.568 139.626 78.6 139.722 78.664L140.01 78.568L140.154 79.144C139.738 79.272 139.546 79.336 139.578 79.336H139.626C139.626 79.336 139.61 79.336 139.578 79.336L139.338 79.288C139.242 79.288 139.162 79.32 139.098 79.384ZM138.906 53.032C139.002 53.064 139.098 53.016 139.194 52.888C139.162 52.856 139.114 52.84 139.05 52.84C138.954 52.84 138.906 52.904 138.906 53.032ZM139.626 55.048L139.77 55L139.914 54.664C140.042 54.6 140.154 54.52 140.25 54.424L139.866 53.512C139.738 53.544 139.642 53.592 139.578 53.656V53.8C139.578 53.928 139.546 54.056 139.482 54.184C139.354 54.28 139.21 54.424 139.05 54.616C139.242 54.904 139.434 55.048 139.626 55.048ZM138.81 56.248C138.842 56.152 138.826 56.072 138.762 56.008C138.73 55.944 138.666 55.96 138.57 56.056C138.57 56.12 138.65 56.184 138.81 56.248ZM138.522 57.064L138.426 57.256C138.458 57.224 138.49 57.208 138.522 57.208H138.57C138.57 57.144 138.554 57.096 138.522 57.064ZM135.498 57.976C135.498 58.008 135.498 58.008 135.498 57.976V57.976ZM136.506 58.744C136.57 58.776 136.634 58.76 136.698 58.696C136.762 58.632 136.746 58.568 136.65 58.504C136.554 58.504 136.506 58.584 136.506 58.744ZM138.714 61.816C138.746 61.752 138.73 61.688 138.666 61.624C138.634 61.56 138.57 61.576 138.474 61.672C138.474 61.768 138.554 61.816 138.714 61.816ZM136.506 61.864C136.538 61.832 136.554 61.752 136.554 61.624H136.362C136.33 61.624 136.346 61.656 136.41 61.72C136.474 61.784 136.506 61.832 136.506 61.864ZM136.794 64.216C136.826 64.184 136.842 64.136 136.842 64.072C136.842 63.976 136.778 63.944 136.65 63.976C136.586 64.04 136.634 64.12 136.794 64.216ZM137.994 67V66.808C137.962 66.744 137.914 66.744 137.85 66.808L137.994 67ZM138.234 69.4C138.298 69.336 138.33 69.288 138.33 69.256C138.33 69.16 138.25 69.112 138.09 69.112C138.058 69.208 138.106 69.304 138.234 69.4ZM136.602 69.976L136.938 69.736C136.874 69.576 136.746 69.432 136.554 69.304C136.33 69.272 136.218 69.32 136.218 69.448C136.218 69.64 136.346 69.816 136.602 69.976ZM140.586 69.928C140.586 69.96 140.586 69.976 140.586 69.976V69.928ZM135.498 75.016C135.594 75.048 135.69 74.984 135.786 74.824C135.754 74.792 135.706 74.776 135.642 74.776C135.546 74.776 135.498 74.856 135.498 75.016ZM138.474 77.704C138.474 77.608 138.458 77.544 138.426 77.512C138.394 77.48 138.314 77.496 138.186 77.56C138.186 77.656 138.282 77.704 138.474 77.704ZM135.45 78.184C135.45 78.12 135.418 78.056 135.354 77.992C135.29 77.928 135.226 77.928 135.162 77.992C135.162 78.056 135.258 78.12 135.45 78.184ZM161.013 79.72L160.629 79.576C160.213 79.512 159.829 79.464 159.477 79.432C159.157 79.432 158.869 79.416 158.613 79.384L158.229 79.48L157.077 79.192L156.645 79.336L155.301 79.144L154.581 79.192C154.517 79.192 154.453 79.208 154.389 79.24L154.197 79.288L152.181 79L151.845 79.096C151.781 79.064 151.685 79.032 151.557 79C151.461 78.968 151.349 78.936 151.221 78.904L151.077 79C151.013 78.968 150.853 78.952 150.597 78.952L150.501 79H149.637C149.157 79 148.965 78.728 149.061 78.184L149.157 77.56C149.189 77.336 149.205 77.16 149.205 77.032C149.205 76.872 149.205 76.744 149.205 76.648C149.237 76.584 149.301 76.504 149.397 76.408C149.493 76.28 149.653 76.136 149.877 75.976V75.88L149.397 75.784L149.349 75.592C149.349 75.368 149.413 75.192 149.541 75.064C149.733 74.808 149.845 74.584 149.877 74.392C149.717 74.36 149.605 74.232 149.541 74.008L149.397 73.48C149.397 73.48 149.429 73.048 149.493 72.184L149.829 72.328C149.861 72.296 149.877 72.2 149.877 72.04V71.752C149.781 71.656 149.701 71.56 149.637 71.464L149.589 71.368C149.589 71.304 149.621 71.176 149.685 70.984C149.749 70.792 149.781 70.696 149.781 70.696C149.781 70.568 149.717 70.456 149.589 70.36C149.589 70.232 149.621 70.072 149.685 69.88C149.685 69.88 149.653 69.832 149.589 69.736C149.589 69.64 149.605 69.592 149.637 69.592C149.605 69.432 149.621 69.256 149.685 69.064C149.781 68.904 149.829 68.824 149.829 68.824L149.733 68.344C149.701 68.184 149.669 68.072 149.637 68.008C149.605 67.912 149.589 67.848 149.589 67.816C149.589 67.752 149.653 67.656 149.781 67.528C149.909 67.4 149.973 67.304 149.973 67.24C149.973 67.24 149.941 67.144 149.877 66.952C149.781 66.856 149.733 66.792 149.733 66.76L149.973 65.944C149.813 65.88 149.781 65.688 149.877 65.368L150.021 64.792C149.989 64.632 149.957 64.504 149.925 64.408C149.925 64.312 149.925 64.232 149.925 64.168L150.021 63.496L150.261 63.16C150.229 63.096 150.181 62.968 150.117 62.776L150.165 62.008C150.069 61.816 150.021 61.704 150.021 61.672L150.405 60.856C150.405 60.856 150.389 60.84 150.357 60.808C150.357 60.776 150.341 60.728 150.309 60.664C150.309 60.568 150.309 60.456 150.309 60.328C150.341 60.168 150.373 59.976 150.405 59.752L150.309 59.176C150.341 59.208 150.373 58.968 150.405 58.456L150.309 58.168C150.277 58.104 150.245 58.056 150.213 58.024C150.213 57.992 150.213 57.96 150.213 57.928C150.245 57.864 150.277 57.8 150.309 57.736C150.341 57.672 150.357 57.592 150.357 57.496L150.453 56.008L150.597 52.408C150.757 52.024 150.837 51.752 150.837 51.592L150.789 51.352C150.789 51.288 150.773 51.24 150.741 51.208C150.709 51.176 150.693 51.144 150.693 51.112L150.645 50.536C150.645 50.472 150.709 50.296 150.837 50.008C150.965 50.04 151.109 50.072 151.269 50.104C151.429 50.104 151.589 50.136 151.749 50.2C151.845 50.296 151.989 50.392 152.181 50.488C152.213 50.488 152.277 50.424 152.373 50.296C152.469 50.2 152.549 50.152 152.613 50.152L152.901 50.344C153.093 50.472 153.381 50.568 153.765 50.632C153.829 50.504 153.893 50.408 153.957 50.344L154.341 50.296C154.469 50.264 154.581 50.248 154.677 50.248L154.869 50.392C154.933 50.456 155.029 50.472 155.157 50.44L155.637 50.344C155.765 50.312 155.861 50.296 155.925 50.296C155.989 50.296 156.037 50.296 156.069 50.296L156.933 50.536C156.997 50.504 157.061 50.488 157.125 50.488C157.221 50.456 157.333 50.424 157.461 50.392L157.893 50.488C157.925 50.616 158.021 50.68 158.181 50.68C158.213 50.68 158.293 50.632 158.421 50.536C158.549 50.408 158.629 50.376 158.661 50.44C158.661 50.44 158.757 50.472 158.949 50.536C159.013 50.472 159.093 50.424 159.189 50.392L159.525 50.488C159.589 50.52 159.637 50.552 159.669 50.584C159.733 50.616 159.781 50.632 159.813 50.632L160.053 50.584C160.053 50.648 160.117 50.792 160.245 51.016C160.309 50.92 160.309 50.792 160.245 50.632L160.629 50.488C160.693 50.52 160.789 50.568 160.917 50.632C161.045 50.696 161.189 50.76 161.349 50.824C161.349 50.888 161.397 50.968 161.493 51.064H161.637L161.925 50.728C161.989 50.696 162.069 50.68 162.165 50.68C162.293 50.68 162.421 50.664 162.549 50.632L162.885 50.68L162.789 52.504C162.629 52.632 162.549 52.776 162.549 52.936L162.597 53.32L162.501 55.624C162.501 55.848 162.325 55.96 161.973 55.96C161.877 55.864 161.781 55.8 161.685 55.768C161.557 55.736 161.381 55.72 161.157 55.72C160.933 55.688 160.677 55.688 160.389 55.72C160.325 55.72 160.245 55.72 160.149 55.72C160.053 55.688 159.925 55.656 159.765 55.624L159.333 55.576L158.565 55.672L157.749 55.624C157.685 55.624 157.621 55.608 157.557 55.576L157.365 55.528C157.109 55.496 156.901 55.48 156.741 55.48C156.613 55.48 156.533 55.48 156.501 55.48C156.373 55.384 156.245 55.336 156.117 55.336C156.053 55.336 155.941 55.4 155.781 55.528C155.621 55.656 155.509 55.72 155.445 55.72C155.445 55.816 155.429 55.88 155.397 55.912L155.445 56.152C155.477 56.216 155.493 56.296 155.493 56.392C155.493 56.456 155.509 56.552 155.541 56.68C155.221 56.808 155.045 57.272 155.013 58.072L155.205 58.12H155.541C155.573 58.152 155.589 58.232 155.589 58.36C155.589 58.488 155.525 58.616 155.397 58.744C155.237 58.904 155.157 58.984 155.157 58.984C155.285 59.272 155.365 59.576 155.397 59.896C155.397 59.96 155.333 60.104 155.205 60.328C155.077 60.552 155.013 60.744 155.013 60.904L154.917 60.76L154.773 60.856V61C154.837 61.064 154.965 61.096 155.157 61.096C155.157 61.16 155.157 61.24 155.157 61.336C155.189 61.4 155.221 61.48 155.253 61.576C155.413 61.832 155.557 61.96 155.685 61.96L156.021 61.816C156.053 61.848 156.117 61.912 156.213 62.008C156.341 62.072 156.421 62.104 156.453 62.104C156.421 62.072 156.549 61.976 156.837 61.816C157.125 61.848 157.333 61.832 157.461 61.768C157.685 61.992 157.845 62.104 157.941 62.104H158.133L158.469 61.96C158.501 61.96 158.549 61.944 158.613 61.912C158.677 61.88 158.741 61.848 158.805 61.816L159.093 61.72C159.189 61.72 159.301 61.784 159.429 61.912C159.589 62.072 159.685 62.152 159.717 62.152C159.813 62.088 159.957 62.04 160.149 62.008C160.149 62.008 160.149 62.04 160.149 62.104C160.181 62.136 160.197 62.2 160.197 62.296C160.197 62.424 160.181 62.616 160.149 62.872C160.149 63.096 160.133 63.384 160.101 63.736L160.005 63.928C160.037 64.024 160.053 64.248 160.053 64.6C160.021 64.664 159.989 64.776 159.957 64.936C159.925 65.096 159.909 65.208 159.909 65.272V65.368C159.909 65.432 159.941 65.592 160.005 65.848V66.04C160.005 66.264 159.941 66.456 159.813 66.616C159.493 66.936 159.301 67.096 159.237 67.096L158.805 66.952C158.741 66.952 158.661 66.968 158.565 67L158.277 67.048C158.213 66.984 158.133 66.936 158.037 66.904C157.973 66.84 157.877 66.792 157.749 66.76C157.685 66.792 157.605 66.824 157.509 66.856C157.445 66.856 157.349 66.872 157.221 66.904L156.693 66.76C156.373 66.664 156.165 66.616 156.069 66.616L155.589 66.712C155.525 66.712 155.445 66.6 155.349 66.376C155.477 66.344 155.557 66.264 155.589 66.136H155.637C155.701 66.136 155.797 66.136 155.925 66.136C156.053 66.136 156.181 66.152 156.309 66.184L156.357 65.992V65.896C156.357 65.8 156.293 65.688 156.165 65.56C156.133 65.56 156.069 65.56 155.973 65.56C155.909 65.528 155.813 65.496 155.685 65.464C155.621 65.528 155.589 65.656 155.589 65.848C155.493 65.816 155.397 65.896 155.301 66.088C155.237 66.024 155.125 66.072 154.965 66.232V66.568C154.901 66.632 154.837 66.744 154.773 66.904C154.549 67 154.437 67.128 154.437 67.288C154.437 67.288 154.469 67.32 154.533 67.384C154.565 67.416 154.581 67.464 154.581 67.528V67.72C154.581 67.816 154.581 67.912 154.581 68.008C154.581 68.104 154.565 68.232 154.533 68.392L154.677 68.584C154.613 68.776 154.373 69.176 153.957 69.784V69.88C153.957 70.008 154.005 70.12 154.101 70.216C154.165 70.024 154.341 69.816 154.629 69.592C154.757 69.752 154.821 69.912 154.821 70.072C154.821 70.104 154.629 70.296 154.245 70.648L154.437 70.984L154.629 70.936C154.757 70.936 154.821 71.032 154.821 71.224C154.757 71.288 154.677 71.416 154.581 71.608C154.517 71.736 154.485 71.864 154.485 71.992L154.629 72.136C154.629 72.168 154.533 72.376 154.341 72.76L154.485 73.144C154.485 73.304 154.373 73.4 154.149 73.432C154.181 73.464 154.261 73.48 154.389 73.48L154.437 73.624C154.341 73.72 154.277 73.816 154.245 73.912C154.309 74.104 154.421 74.216 154.581 74.248C154.741 74.248 154.869 74.264 154.965 74.296C155.221 74.264 155.477 74.248 155.733 74.248C155.989 74.248 156.261 74.248 156.549 74.248C156.581 74.376 156.661 74.44 156.789 74.44C156.853 74.44 156.997 74.296 157.221 74.008C157.413 74.008 157.541 74.184 157.605 74.536H157.749C157.749 74.44 157.765 74.36 157.797 74.296C158.021 74.2 158.357 74.168 158.805 74.2L159.381 74.44C159.381 74.472 159.509 74.488 159.765 74.488C159.893 74.488 159.973 74.504 160.005 74.536L160.629 74.392C160.725 74.392 160.805 74.36 160.869 74.296C160.901 74.264 161.013 74.248 161.205 74.248C161.461 74.312 161.589 74.504 161.589 74.824C161.589 74.952 161.541 75.288 161.445 75.832C161.445 75.832 161.413 75.864 161.349 75.928C161.317 75.992 161.301 76.056 161.301 76.12V77.32C161.301 77.32 161.205 77.352 161.013 77.416C161.237 77.864 161.349 78.232 161.349 78.52C161.349 78.68 161.253 78.84 161.061 79L161.205 79.624C161.077 79.688 161.013 79.72 161.013 79.72ZM161.253 52.936H161.301C161.493 52.936 161.653 52.824 161.781 52.6C161.685 52.472 161.605 52.408 161.541 52.408L160.965 52.744C161.061 52.872 161.157 52.936 161.253 52.936ZM160.389 53.944C160.389 53.912 160.341 53.848 160.245 53.752C160.245 53.752 160.213 53.784 160.149 53.848L160.389 53.944ZM152.949 54.616L153.189 54.088L152.949 53.992L152.757 53.848C152.565 53.976 152.469 54.152 152.469 54.376C152.661 54.504 152.821 54.584 152.949 54.616ZM151.749 58.264C151.749 58.2 151.733 58.136 151.701 58.072C151.701 58.008 151.685 57.944 151.653 57.88H151.317L151.269 58.072L151.461 58.216L151.749 58.264ZM149.973 61.72C149.973 61.656 149.989 61.64 150.021 61.672L149.973 61.72ZM152.565 62.776C152.725 62.52 152.693 62.328 152.469 62.2C152.437 62.232 152.389 62.328 152.325 62.488C152.325 62.584 152.405 62.68 152.565 62.776ZM151.413 63.304L151.461 62.584L151.317 62.44H150.981L150.933 62.584C150.933 62.584 150.981 62.68 151.077 62.872C151.141 62.904 151.141 63 151.077 63.16C151.173 63.16 151.285 63.208 151.413 63.304ZM152.037 64.552C152.037 64.488 152.037 64.408 152.037 64.312C152.037 64.216 152.053 64.12 152.085 64.024C152.053 64.024 151.989 64.072 151.893 64.168C151.893 64.264 151.941 64.392 152.037 64.552ZM157.797 64.456H157.845C157.909 64.456 158.069 64.424 158.325 64.36L158.085 64.12C158.021 64.024 157.909 64.056 157.749 64.216C157.749 64.344 157.765 64.424 157.797 64.456ZM153.141 69.4C153.173 69.368 153.141 69.304 153.045 69.208C152.981 69.208 152.933 69.224 152.901 69.256L153.141 69.4ZM152.997 70.936C153.061 70.936 153.189 70.904 153.381 70.84L153.237 70.456C153.109 70.488 153.045 70.552 153.045 70.648L152.997 70.936ZM151.077 71.944C151.077 71.88 151.077 71.8 151.077 71.704C151.077 71.608 151.093 71.528 151.125 71.464C151.093 71.432 151.029 71.464 150.933 71.56L151.077 71.944ZM151.125 73C151.157 72.936 151.141 72.872 151.077 72.808C151.013 72.744 150.933 72.744 150.837 72.808C150.869 72.872 150.965 72.936 151.125 73ZM150.645 75.64C150.741 75.512 150.757 75.384 150.693 75.256H150.501L150.405 75.544C150.469 75.608 150.549 75.64 150.645 75.64ZM157.797 77.656C157.797 77.592 157.765 77.528 157.701 77.464C157.669 77.432 157.605 77.448 157.509 77.512C157.509 77.608 157.605 77.656 157.797 77.656ZM157.941 78.712L158.805 78.568L158.661 78.232C158.597 78.072 158.469 77.992 158.277 77.992L157.845 78.136C157.845 78.232 157.845 78.328 157.845 78.424C157.877 78.52 157.909 78.616 157.941 78.712ZM171.746 59.944C171.746 59.944 171.666 59.864 171.506 59.704C171.346 59.544 171.25 59.464 171.218 59.464C171.09 59.464 170.978 59.528 170.882 59.656C170.722 59.816 170.594 59.896 170.498 59.896C170.05 59.896 169.858 59.672 169.922 59.224C170.05 59.192 170.21 59.096 170.402 58.936L170.498 58.072C170.498 57.944 170.562 57.864 170.69 57.832L170.642 57.496C170.706 57.336 170.77 57.24 170.834 57.208V56.872C171.09 56.52 171.218 56.328 171.218 56.296L171.17 56.056C171.17 55.768 171.106 55.432 170.978 55.048C170.946 55.016 170.882 55 170.786 55L170.546 55.048C170.482 55.08 170.434 55.112 170.402 55.144C170.37 55.144 170.338 55.144 170.306 55.144C170.082 55.144 169.97 55.016 169.97 54.76C169.97 54.696 170.018 54.616 170.114 54.52C170.178 54.456 170.21 54.408 170.21 54.376C170.242 54.312 170.258 53.928 170.258 53.224L170.354 52.984C170.354 52.984 170.29 52.856 170.162 52.6C170.13 52.568 170.114 52.472 170.114 52.312C170.114 52.184 170.194 51.992 170.354 51.736C170.226 51.576 170.162 51.432 170.162 51.304C170.162 51.112 170.242 51.016 170.402 51.016L170.642 51.064C170.738 51.096 170.818 51.112 170.882 51.112C170.914 51.08 171.234 51.064 171.842 51.064L172.034 51.16C172.354 51.16 172.562 51.144 172.658 51.112C172.69 51.112 172.738 51.08 172.802 51.016C172.866 50.952 172.898 50.92 172.898 50.92C172.962 50.92 173.042 50.968 173.138 51.064C173.234 51.16 173.298 51.208 173.33 51.208L173.618 51.064C173.81 51 173.906 50.968 173.906 50.968C174.066 50.968 174.146 51.032 174.146 51.16C174.146 51.224 174.13 51.304 174.098 51.4C174.098 51.496 174.114 51.608 174.146 51.736L174.242 52.216C174.242 52.216 174.21 52.296 174.146 52.456C174.082 52.616 174.05 52.728 174.05 52.792L174.098 52.984C174.13 53.016 174.146 53.08 174.146 53.176V53.368C174.146 53.432 174.146 53.512 174.146 53.608C174.146 53.704 174.13 53.816 174.098 53.944C174.066 54.168 174.066 54.296 174.098 54.328L174.146 54.376C174.114 54.376 174.082 54.424 174.05 54.52L174.098 55C174.162 55.352 174.178 55.56 174.146 55.624C174.05 55.688 173.858 55.864 173.57 56.152C173.538 56.28 173.538 56.52 173.57 56.872L173.33 57.352C172.978 57.64 172.834 58.008 172.898 58.456C172.866 58.488 172.722 58.536 172.466 58.6C172.338 58.632 172.242 58.68 172.178 58.744C172.21 58.744 172.258 58.824 172.322 58.984V59.272C172.322 59.496 172.29 59.64 172.226 59.704L171.746 59.944ZM174.146 54.376C174.146 54.344 174.146 54.344 174.146 54.376V54.376ZM171.986 57.448C172.05 57.32 172.082 57.16 172.082 56.968L171.986 56.824C171.826 56.92 171.746 57.064 171.746 57.256C171.746 57.384 171.826 57.448 171.986 57.448ZM188.626 79.72L188.29 79.624C188.098 79.528 187.97 79.48 187.906 79.48L187.57 79.528H187.426C187.458 79.528 187.394 79.512 187.234 79.48C187.074 79.48 186.77 79.432 186.322 79.336C186.194 79.112 186.066 79 185.938 79L185.698 79.048C185.666 79.048 185.634 79.048 185.602 79.048C185.57 79.08 185.538 79.096 185.506 79.096C185.378 79.096 185.234 79.016 185.074 78.856C185.01 78.792 184.93 78.712 184.834 78.616C184.738 78.488 184.61 78.36 184.45 78.232C183.938 78.104 183.602 77.88 183.442 77.56C183.442 77.368 183.394 77.256 183.298 77.224C183.17 77.192 183.106 77.096 183.106 76.936C183.106 76.744 183.17 76.456 183.298 76.072L182.578 75.784L182.338 74.824C182.274 74.664 182.178 74.488 182.05 74.296C181.954 74.072 181.826 73.832 181.666 73.576V73.288C181.666 73.096 181.698 72.968 181.762 72.904C181.794 72.872 181.89 72.856 182.05 72.856H182.194C182.226 72.856 182.242 72.872 182.242 72.904C182.242 72.904 182.258 72.904 182.29 72.904L182.53 72.76C182.562 72.728 182.69 72.712 182.914 72.712L183.106 72.76C183.138 72.76 183.154 72.776 183.154 72.808C183.186 72.808 183.218 72.808 183.25 72.808L183.826 72.616L183.97 72.472C184.098 72.408 184.258 72.36 184.45 72.328C184.642 72.296 184.898 72.264 185.218 72.232L185.362 72.28C185.33 72.28 185.314 72.392 185.314 72.616C185.314 72.776 185.41 72.856 185.602 72.856C185.634 72.856 185.81 72.664 186.13 72.28C186.194 72.472 186.226 72.792 186.226 73.24C186.226 73.464 186.29 73.624 186.418 73.72C186.514 73.88 186.546 74.04 186.514 74.2C186.514 74.264 186.546 74.296 186.61 74.296C186.354 74.296 186.226 74.36 186.226 74.488C186.226 74.712 186.338 74.824 186.562 74.824C186.626 74.824 186.738 74.696 186.898 74.44C186.93 74.504 187.026 74.68 187.186 74.968C187.282 75.064 187.618 75.256 188.194 75.544C188.45 75.64 188.786 75.688 189.202 75.688C189.33 75.688 189.474 75.56 189.634 75.304C189.858 75.304 190.066 75.144 190.258 74.824C190.226 74.856 190.194 74.872 190.162 74.872C190.162 74.84 190.146 74.824 190.114 74.824C190.114 74.792 190.114 74.76 190.114 74.728C190.114 74.632 190.13 74.536 190.162 74.44C190.226 74.312 190.274 74.184 190.306 74.056C190.242 73.992 190.162 73.896 190.066 73.768C190.002 73.608 189.922 73.432 189.826 73.24C189.986 73.08 189.954 72.904 189.73 72.712L189.25 72.376L189.346 71.848C189.25 71.688 188.866 71.56 188.194 71.464L188.002 71.08C187.842 70.92 187.618 70.744 187.33 70.552C187.234 70.552 187.09 70.504 186.898 70.408C186.866 70.376 186.834 70.344 186.802 70.312C186.77 70.248 186.722 70.2 186.658 70.168C186.626 70.136 186.53 70.12 186.37 70.12C186.274 70.056 186.13 69.912 185.938 69.688L185.89 69.304C185.794 69.304 185.618 69.272 185.362 69.208C185.106 69.112 184.914 69 184.786 68.872L184.45 68.296C184.162 68.04 183.89 67.768 183.634 67.48C183.218 67.064 182.994 66.728 182.962 66.472L183.25 66.136C183.218 66.136 183.138 66.136 183.01 66.136C182.914 66.136 182.802 66.024 182.674 65.8V65.464C182.61 65.24 182.546 65.112 182.482 65.08C182.45 65.016 182.434 64.968 182.434 64.936L182.482 64.744V63.928C182.514 63.96 182.562 63.976 182.626 63.976C182.786 63.976 182.866 63.88 182.866 63.688C182.866 63.464 182.706 63.352 182.386 63.352C182.738 63.096 182.914 62.856 182.914 62.632C182.914 62.408 182.754 62.2 182.434 62.008C182.402 61.848 182.45 61.704 182.578 61.576L182.962 61.384C182.994 61.32 183.026 61.256 183.058 61.192C183.122 61.096 183.202 60.984 183.298 60.856C183.266 60.792 183.234 60.712 183.202 60.616C183.202 60.52 183.202 60.44 183.202 60.376C183.202 60.184 183.234 60.04 183.298 59.944C183.33 59.912 183.378 59.896 183.442 59.896C183.506 59.896 183.586 59.88 183.682 59.848L183.874 59.464C184.354 59.464 184.514 59.288 184.354 58.936H184.402C184.498 58.936 184.61 58.792 184.738 58.504C184.802 58.504 184.978 58.408 185.266 58.216C185.394 58.088 185.57 58.024 185.794 58.024H185.938C185.97 58.024 185.986 58.04 185.986 58.072C186.018 58.072 186.05 58.072 186.082 58.072L186.274 58.024C186.274 57.96 186.322 57.88 186.418 57.784C186.674 57.592 186.866 57.496 186.994 57.496L187.378 57.592L187.522 57.544H187.666C188.146 57.544 188.498 57.656 188.722 57.88L188.674 58.12H188.77C188.802 58.12 188.898 58.04 189.058 57.88C189.186 57.752 189.314 57.688 189.442 57.688C189.634 57.688 189.794 57.736 189.922 57.832C190.082 57.928 190.178 57.976 190.21 57.976L190.594 57.88C190.722 57.848 190.802 57.832 190.834 57.832C190.898 57.832 190.946 57.832 190.978 57.832C191.074 57.832 191.17 57.848 191.266 57.88L191.458 57.976C191.49 58.04 191.602 58.168 191.794 58.36H191.842C192.034 58.36 192.338 58.456 192.754 58.648C192.978 58.808 193.154 59.048 193.282 59.368L193.714 60.232C193.714 60.488 193.762 60.84 193.858 61.288C193.922 61.352 194.002 61.448 194.098 61.576C194.194 61.672 194.306 61.8 194.434 61.96C194.434 61.992 194.418 62.056 194.386 62.152C194.386 62.216 194.37 62.296 194.338 62.392C194.434 62.488 194.514 62.648 194.578 62.872C194.61 62.968 194.642 63.048 194.674 63.112C194.706 63.176 194.738 63.24 194.77 63.304V63.544L193.906 63.88C193.426 64.008 193.01 64.104 192.658 64.168C192.338 64.232 192.066 64.264 191.842 64.264L191.698 64.216C191.666 64.216 191.634 64.216 191.602 64.216C191.602 64.184 191.586 64.168 191.554 64.168C191.49 64.168 191.41 64.216 191.314 64.312L191.122 64.504C190.834 64.6 190.61 64.648 190.45 64.648C190.322 64.648 190.178 64.504 190.018 64.216C189.89 63.992 189.826 63.832 189.826 63.736C189.826 62.648 189.794 62.136 189.73 62.2C189.41 62.008 189.186 61.96 189.058 62.056H189.01L188.578 61.864C188.45 61.8 188.338 61.768 188.242 61.768C188.178 61.736 188.13 61.72 188.098 61.72L187.858 61.768C187.762 61.8 187.682 61.816 187.618 61.816C187.554 61.816 187.49 61.816 187.426 61.816L187.33 62.248C187.266 62.28 187.138 62.392 186.946 62.584L186.802 63.208C186.962 63.24 187.074 63.352 187.138 63.544C187.202 63.832 187.234 63.976 187.234 63.976C187.202 64.008 187.01 64.056 186.658 64.12C186.594 64.12 186.53 64.152 186.466 64.216C186.498 64.312 186.722 64.392 187.138 64.456C187.234 64.552 187.298 64.712 187.33 64.936L187.858 65.032C187.858 65.16 187.922 65.304 188.05 65.464C188.082 65.464 188.162 65.496 188.29 65.56C188.354 65.688 188.45 65.816 188.578 65.944C188.738 65.944 188.882 65.992 189.01 66.088C189.17 66.248 189.25 66.392 189.25 66.52H189.154C189.058 66.52 188.93 66.568 188.77 66.664V66.856C188.834 66.92 188.914 66.984 189.01 67.048C189.138 67.08 189.282 67.08 189.442 67.048L189.586 67H189.73L189.922 67.144C190.114 67.176 190.258 67.192 190.354 67.192C190.45 67.192 190.514 67.192 190.546 67.192C190.802 67.256 190.978 67.352 191.074 67.48C191.17 67.736 191.33 67.992 191.554 68.248L192.034 68.392C192.194 68.488 192.306 68.632 192.37 68.824C192.85 69.24 193.09 69.544 193.09 69.736V69.832L193.666 70.408C193.666 70.472 193.666 70.552 193.666 70.648C193.698 70.744 193.73 70.856 193.762 70.984C193.826 71.016 193.89 71.048 193.954 71.08C194.018 71.112 194.082 71.16 194.146 71.224C194.338 71.448 194.434 71.624 194.434 71.752L194.338 71.992C194.306 72.056 194.274 72.104 194.242 72.136C194.242 72.168 194.242 72.2 194.242 72.232C194.242 72.328 194.354 72.552 194.578 72.904C194.578 72.904 194.546 72.984 194.482 73.144L194.578 73.576L194.674 73.912L194.53 74.392C194.562 74.456 194.578 74.616 194.578 74.872C194.546 74.904 194.514 74.936 194.482 74.968C194.45 74.968 194.418 75 194.386 75.064L194.002 76.264C194.002 76.328 194.002 76.424 194.002 76.552C194.002 76.648 193.986 76.76 193.954 76.888C193.89 77.144 193.634 77.272 193.186 77.272L192.85 78.088L192.13 78.568C192.034 78.664 191.81 78.84 191.458 79.096H191.074L190.306 79.432C189.314 79.624 188.754 79.72 188.626 79.72ZM187.762 58.648C187.794 58.584 187.778 58.52 187.714 58.456C187.682 58.424 187.602 58.44 187.474 58.504C187.538 58.6 187.634 58.648 187.762 58.648ZM193.906 63.16C193.906 62.936 193.89 62.824 193.858 62.824L193.618 62.776C193.586 62.776 193.554 62.776 193.522 62.776C193.49 62.744 193.458 62.728 193.426 62.728C193.362 62.792 193.33 62.904 193.33 63.064L193.906 63.16ZM183.682 63.448C183.682 63.32 183.666 63.24 183.634 63.208C183.538 63.176 183.458 63.192 183.394 63.256C183.394 63.32 183.49 63.384 183.682 63.448ZM186.85 66.856C187.01 66.792 187.09 66.728 187.09 66.664C187.09 66.6 187.01 66.536 186.85 66.472V66.856ZM183.586 74.632C183.586 74.568 183.554 74.472 183.49 74.344L183.346 74.392C183.186 74.392 183.138 74.312 183.202 74.152L183.106 74.344C183.138 74.44 183.202 74.536 183.298 74.632H183.586ZM192.514 75.928C192.482 75.928 192.69 75.768 193.138 75.448V75.256C192.946 75.032 192.77 74.92 192.61 74.92H192.466C192.466 74.984 192.45 75.064 192.418 75.16C192.418 75.224 192.402 75.304 192.37 75.4C192.21 75.656 192.13 75.784 192.13 75.784C192.226 75.88 192.354 75.928 192.514 75.928ZM187.57 77.944L187.282 77.608H187.09L187.042 77.752L187.57 77.944Z" fill="#06CB1A"/>
</svg>
